bezy-grotesk-regular.ufo
<glyph name="plus" format="2">
  <advance width="576"/>
  <unicode hex="002B"/>
  <outline>
    <contour>
      <point x="268" y="112" type="line"/>
      <point x="324" y="112" type="line"/>
      <point x="340" y="128" type="line"/>
      <point x="340" y="608" type="line"/>
      <point x="324" y="624" type="line"/>
      <point x="268" y="624" type="line"/>
      <point x="252" y="608" type="line"/>
      <point x="252" y="128" type="line"/>
    </contour>
    <contour>
      <point x="32" y="396" type="line"/>
      <point x="32" y="340" type="line"/>
      <point x="48" y="324" type="line"/>
      <point x="528" y="324" type="line"/>
      <point x="544" y="340" type="line"/>
      <point x="544" y="396" type="line"/>
      <point x="528" y="412" type="line"/>
      <point x="48" y="412" type="line"/>
    </contour>
  </outline>
</glyph>
<glyph name="hyphen" format="2">
	<unicode hex="002D"/>
	<advance width="600"/>
	<outline>
		<contour>
			<point x="80" y="290" type="line"/>
			<point x="520" y="290" type="line"/>
			<point x="536" y="306" type="line"/>
			<point x="536" y="390" type="line"/>
			<point x="520" y="406" type="line"/>
			<point x="80" y="406" type="line"/>
			<point x="64" y="390" type="line"/>
			<point x="64" y="306" type="line"/>
		</contour>
	</outline>
</glyph>
<glyph name="period" format="2">
  <advance width="264"/>
  <unicode hex="002E"/>
  <outline>
    <contour>
      <point x="80" y="0" type="line"/>
      <point x="184" y="0" type="line"/>
      <point x="200" y="16" type="line"/>
      <point x="200" y="120" type="line"/>
      <point x="184" y="136" type="line"/>
      <point x="80" y="136" type="line"/>
      <point x="64" y="120" type="line"/>
      <point x="64" y="16" type="line"/>
    </contour>
  </outline>
</glyph>
<glyph name="zero" format="2">
  <advance width="680"/>
  <unicode hex="0030"/>
  <outline>
    <contour>
      <point x="340" y="-16" type="curve" smooth="yes"/>
      <point x="500" y="-16"/>
      <point x="616" y="92"/>
      <point x="616" y="400" type="curve" smooth="yes"/>
      <point x="616" y="708"/>
      <point x="500" y="816"/>
      <point x="340" y="816" type="curve" smooth="yes"/>
      <point x="180" y="816"/>
      <point x="64" y="708"/>
      <point x="64" y="400" type="curve" smooth="yes"/>
      <point x="64" y="92"/>
      <point x="180" y="-16"/>
    </contour>
    <contour>
      <point x="340" y="84" type="curve" smooth="yes"/>
      <point x="236" y="84"/>
      <point x="180" y="172"/>
      <point x="180" y="400" type="curve" smooth="yes"/>
      <point x="180" y="628"/>
      <point x="236" y="716"/>
      <point x="340" y="716" type="curve" smooth="yes"/>
      <point x="444" y="716"/>
      <point x="500" y="628"/>
      <point x="500" y="400" type="curve" smooth="yes"/>
      <point x="500" y="172"/>
      <point x="444" y="84"/>
    </contour>
  </outline>
</glyph>
<glyph name="one" format="2">
  <advance width="404"/>
  <unicode hex="0031"/>
  <outline>
    <contour>
      <point x="212" y="0" type="line"/>
      <point x="292" y="0" type="line"/>
      <point x="308" y="16" type="line"/>
      <point x="308" y="784" type="line"/>
      <point x="292" y="800" type="line"/>
      <point x="212" y="800" type="line"/>
      <point x="196" y="784" type="line"/>
      <point x="196" y="700"/>
      <point x="148" y="652"/>
      <point x="64" y="652" type="curve"/>
      <point x="48" y="636" type="line"/>
      <point x="48" y="576" type="line"/>
      <point x="64" y="560" type="line"/>
      <point x="184" y="560" type="line"/>
      <point x="196" y="544" type="line"/>
      <point x="196" y="16" type="line"/>
    </contour>
  </outline>
</glyph>
<glyph name="five" format="2">
	<unicode hex="0035"/>
	<advance width="620"/>
	<outline>
		<contour>
			<point x="304" y="-16" type="curve" smooth="yes"/>
			<point x="476" y="-16"/>
			<point x="580" y="72"/>
			<point x="580" y="260" type="curve" smooth="yes"/>
			<point x="580" y="412"/>
			<point x="516" y="532"/>
			<point x="348" y="532" type="curve" smooth="yes"/>
			<point x="280" y="532"/>
			<point x="228" y="508"/>
			<point x="192" y="476" type="curve"/>
			<point x="176" y="476" type="line"/>
			<point x="208" y="692" type="line"/>
			<point x="220" y="704" type="line"/>
			<point x="528" y="704" type="line"/>
			<point x="544" y="720" type="line"/>
			<point x="544" y="784" type="line"/>
			<point x="528" y="800" type="line"/>
			<point x="148" y="800" type="line"/>
			<point x="132" y="784" type="line"/>
			<point x="72" y="396" type="line"/>
			<point x="72" y="380" type="line"/>
			<point x="88" y="364" type="line"/>
			<point x="168" y="364" type="line"/>
			<point x="204" y="412"/>
			<point x="248" y="432"/>
			<point x="328" y="432" type="curve" smooth="yes"/>
			<point x="428" y="432"/>
			<point x="464" y="348"/>
			<point x="464" y="260" type="curve" smooth="yes"/>
			<point x="464" y="164"/>
			<point x="420" y="84"/>
			<point x="304" y="84" type="curve" smooth="yes"/>
			<point x="188" y="84"/>
			<point x="152" y="144"/>
			<point x="152" y="216" type="curve"/>
			<point x="136" y="232" type="line"/>
			<point x="56" y="232" type="line"/>
			<point x="40" y="216" type="line"/>
			<point x="40" y="56"/>
			<point x="132" y="-16"/>
		</contour>
	</outline>
</glyph>
<glyph name="B" format="2">
  <advance width="692"/>
  <unicode hex="0042"/>
  <outline>
    <contour>
      <point x="80" y="0" type="line"/>
      <point x="432" y="0" type="line" smooth="yes"/>
      <point x="580" y="0"/>
      <point x="668" y="74"/>
      <point x="668" y="222" type="curve" smooth="yes"/>
      <point x="668" y="320"/>
      <point x="590" y="388"/>
      <point x="504" y="398" type="curve"/>
      <point x="504" y="406" type="line"/>
      <point x="568" y="422"/>
      <point x="628" y="490"/>
      <point x="628" y="560" type="curve" smooth="yes"/>
      <point x="628" y="696"/>
      <point x="544" y="768"/>
      <point x="392" y="768" type="curve" smooth="yes"/>
      <point x="80" y="768" type="line"/>
      <point x="64" y="752" type="line"/>
      <point x="64" y="16" type="line"/>
    </contour>
    <contour>
      <point x="176" y="438" type="line"/>
      <point x="168" y="446" type="line"/>
      <point x="168" y="670" type="line"/>
      <point x="176" y="678" type="line"/>
      <point x="384" y="678" type="line" smooth="yes"/>
      <point x="464" y="678"/>
      <point x="520" y="640"/>
      <point x="520" y="560" type="curve" smooth="yes"/>
      <point x="520" y="480"/>
      <point x="464" y="438"/>
      <point x="384" y="438" type="curve" smooth="yes"/>
    </contour>
    <contour>
      <point x="176" y="94" type="line"/>
      <point x="168" y="102" type="line"/>
      <point x="168" y="342" type="line"/>
      <point x="176" y="350" type="line"/>
      <point x="424" y="350" type="line" smooth="yes"/>
      <point x="508" y="350"/>
      <point x="560" y="298"/>
      <point x="560" y="222" type="curve" smooth="yes"/>
      <point x="560" y="146"/>
      <point x="508" y="94"/>
      <point x="424" y="94" type="curve" smooth="yes"/>
    </contour>
  </outline>
</glyph>
<glyph name="G" format="2">
  <advance width="830"/>
  <unicode hex="0047"/>
  <outline>
    <contour>
      <point x="414" y="-16" type="curve" smooth="yes"/>
      <point x="510" y="-16"/>
      <point x="590" y="24"/>
      <point x="654" y="120" type="curve"/>
      <point x="662" y="120" type="line"/>
      <point x="670" y="16" type="line"/>
      <point x="686" y="0" type="line"/>
      <point x="726" y="0" type="line"/>
      <point x="742" y="16" type="line"/>
      <point x="742" y="400" type="line"/>
      <point x="726" y="416" type="line"/>
      <point x="430" y="416" type="line"/>
      <point x="414" y="400" type="line"/>
      <point x="414" y="336" type="line"/>
      <point x="430" y="320" type="line"/>
      <point x="638" y="320" type="line"/>
      <point x="646" y="312" type="line"/>
      <point x="646" y="296" type="line" smooth="yes"/>
      <point x="646" y="192"/>
      <point x="582" y="80"/>
      <point x="414" y="80" type="curve" smooth="yes"/>
      <point x="238" y="80"/>
      <point x="146" y="200"/>
      <point x="146" y="384" type="curve" smooth="yes"/>
      <point x="146" y="560"/>
      <point x="230" y="688"/>
      <point x="414" y="688" type="curve" smooth="yes"/>
      <point x="546" y="688"/>
      <point x="602" y="624"/>
      <point x="622" y="576" type="curve"/>
      <point x="638" y="560" type="line"/>
      <point x="710" y="560" type="line"/>
      <point x="726" y="576" type="line"/>
      <point x="726" y="592" type="line" smooth="yes"/>
      <point x="694" y="680"/>
      <point x="610" y="784"/>
      <point x="414" y="784" type="curve" smooth="yes"/>
      <point x="182" y="784"/>
      <point x="38" y="624"/>
      <point x="38" y="384" type="curve" smooth="yes"/>
      <point x="38" y="144"/>
      <point x="182" y="-16"/>
    </contour>
  </outline>
</glyph>
<glyph name="H" format="2">
  <advance width="736"/>
  <unicode hex="0048"/>
  <outline>
    <contour>
      <point x="80" y="0" type="line"/>
      <point x="152" y="0" type="line"/>
      <point x="168" y="16" type="line"/>
      <point x="168" y="352" type="line"/>
      <point x="176" y="360" type="line"/>
      <point x="560" y="360" type="line"/>
      <point x="568" y="352" type="line"/>
      <point x="568" y="16" type="line"/>
      <point x="584" y="0" type="line"/>
      <point x="656" y="0" type="line"/>
      <point x="672" y="16" type="line"/>
      <point x="672" y="752" type="line"/>
      <point x="656" y="768" type="line"/>
      <point x="584" y="768" type="line"/>
      <point x="568" y="752" type="line"/>
      <point x="568" y="456" type="line"/>
      <point x="560" y="448" type="line"/>
      <point x="176" y="448" type="line"/>
      <point x="168" y="456" type="line"/>
      <point x="168" y="752" type="line"/>
      <point x="152" y="768" type="line"/>
      <point x="80" y="768" type="line"/>
      <point x="64" y="752" type="line"/>
      <point x="64" y="16" type="line"/>
    </contour>
  </outline>
</glyph>
<glyph name="O" format="2">
  <advance width="828"/>
  <unicode hex="004F"/>
  <outline>
    <contour>
      <point x="414" y="-16" type="curve" smooth="yes"/>
      <point x="650" y="-14"/>
      <point x="790" y="148"/>
      <point x="790" y="384" type="curve" smooth="yes"/>
      <point x="790" y="620"/>
      <point x="650" y="784"/>
      <point x="414" y="784" type="curve" smooth="yes"/>
      <point x="178" y="784"/>
      <point x="38" y="620"/>
      <point x="38" y="384" type="curve" smooth="yes"/>
      <point x="38" y="148"/>
      <point x="178" y="-18"/>
    </contour>
    <contour>
      <point x="414" y="80" type="curve" smooth="yes"/>
      <point x="238" y="80"/>
      <point x="146" y="208"/>
      <point x="146" y="384" type="curve" smooth="yes"/>
      <point x="146" y="560"/>
      <point x="238" y="688"/>
      <point x="414" y="688" type="curve" smooth="yes"/>
      <point x="590" y="688"/>
      <point x="682" y="560"/>
      <point x="682" y="384" type="curve" smooth="yes"/>
      <point x="682" y="208"/>
      <point x="590" y="80"/>
    </contour>
  </outline>
</glyph>
<glyph name="V" format="2">
	<unicode hex="0056"/>
	<advance width="640"/>
	<outline>
		<contour>
			<point x="262" y="0" type="line"/>
			<point x="374" y="0" type="line"/>
			<point x="394" y="16" type="line"/>
			<point x="624" y="694" type="line"/>
			<point x="624" y="752" type="line"/>
			<point x="608" y="768" type="line"/>
			<point x="554" y="768" type="line"/>
			<point x="538" y="752" type="line"/>
			<point x="328" y="114" type="line"/>
			<point x="312" y="114" type="line"/>
			<point x="102" y="752" type="line"/>
			<point x="86" y="768" type="line"/>
			<point x="32" y="768" type="line"/>
			<point x="16" y="752" type="line"/>
			<point x="16" y="694" type="line"/>
			<point x="246" y="16" type="line"/>
		</contour>
	</outline>
</glyph>
<glyph name="a" format="2">
	<unicode hex="0061"/>
	<advance width="592"/>
	<outline>
		<contour>
			<point x="224" y="-16" type="curve"/>
			<point x="306" y="-16"/>
			<point x="374" y="16"/>
			<point x="416" y="72" type="curve"/>
			<point x="424" y="72" type="line"/>
			<point x="424" y="32"/>
			<point x="456" y="0"/>
			<point x="496" y="0" type="curve"/>
			<point x="544" y="0" type="line"/>
			<point x="560" y="16" type="line"/>
			<point x="560" y="64" type="line"/>
			<point x="544" y="80" type="line"/>
			<point x="520" y="80"/>
			<point x="512" y="88"/>
			<point x="512" y="112" type="curve"/>
			<point x="512" y="376" type="line"/>
			<point x="512" y="510"/>
			<point x="430" y="592"/>
			<point x="296" y="592" type="curve"/>
			<point x="168" y="592"/>
			<point x="72" y="514"/>
			<point x="72" y="416" type="curve"/>
			<point x="88" y="400" type="line"/>
			<point x="136" y="400" type="line"/>
			<point x="152" y="416" type="line"/>
			<point x="172" y="474"/>
			<point x="216" y="512"/>
			<point x="288" y="512" type="curve"/>
			<point x="372" y="512"/>
			<point x="416" y="464"/>
			<point x="416" y="392" type="curve"/>
			<point x="416" y="360" type="line"/>
			<point x="408" y="352" type="line"/>
			<point x="312" y="352" type="line"/>
			<point x="130" y="352"/>
			<point x="32" y="284"/>
			<point x="32" y="160" type="curve"/>
			<point x="32" y="52"/>
			<point x="106" y="-16"/>
		</contour>
		<contour>
			<point x="240" y="72" type="curve"/>
			<point x="164" y="72"/>
			<point x="128" y="112"/>
			<point x="128" y="160" type="curve"/>
			<point x="128" y="240"/>
			<point x="196" y="280"/>
			<point x="344" y="280" type="curve"/>
			<point x="408" y="280" type="line"/>
			<point x="416" y="272" type="line"/>
			<point x="416" y="216" type="line"/>
			<point x="416" y="130"/>
			<point x="346" y="72"/>
		</contour>
	</outline>
	<anchor name="top" x="282" y="578"/>
</glyph>
<glyph name="b" format="2">
  <advance width="616"/>
  <unicode hex="0062"/>
  <outline>
    <contour>
      <point x="80" y="0" type="line"/>
      <point x="144" y="0" type="line"/>
      <point x="160" y="16" type="line"/>
      <point x="160" y="64" type="line"/>
      <point x="168" y="64" type="line"/>
      <point x="202" y="16"/>
      <point x="272" y="-16"/>
      <point x="344" y="-16" type="curve" smooth="yes"/>
      <point x="486" y="-16"/>
      <point x="576" y="102"/>
      <point x="576" y="288" type="curve" smooth="yes"/>
      <point x="576" y="476"/>
      <point x="488" y="592"/>
      <point x="344" y="592" type="curve" smooth="yes"/>
      <point x="270" y="592"/>
      <point x="204" y="562"/>
      <point x="168" y="512" type="curve"/>
      <point x="160" y="512" type="line"/>
      <point x="160" y="752" type="line"/>
      <point x="144" y="768" type="line"/>
      <point x="80" y="768" type="line"/>
      <point x="64" y="752" type="line"/>
      <point x="64" y="16" type="line"/>
    </contour>
    <contour>
      <point x="316" y="504" type="curve" smooth="yes"/>
      <point x="416" y="504"/>
      <point x="480" y="420"/>
      <point x="480" y="288" type="curve" smooth="yes"/>
      <point x="480" y="156"/>
      <point x="416" y="72"/>
      <point x="316" y="72" type="curve" smooth="yes"/>
      <point x="216" y="72"/>
      <point x="152" y="156"/>
      <point x="152" y="288" type="curve" smooth="yes"/>
      <point x="152" y="420"/>
      <point x="216" y="504"/>
    </contour>
  </outline>
</glyph>
<glyph name="c" format="2">
  <advance width="608"/>
  <unicode hex="0063"/>
  <outline>
    <contour>
      <point x="320" y="-16" type="curve" smooth="yes"/>
      <point x="480" y="-16"/>
      <point x="540" y="70"/>
      <point x="568" y="176" type="curve"/>
      <point x="568" y="192" type="line"/>
      <point x="552" y="208" type="line"/>
      <point x="484" y="208" type="line"/>
      <point x="468" y="192" type="line"/>
      <point x="456" y="144"/>
      <point x="412" y="72"/>
      <point x="320" y="72" type="curve" smooth="yes"/>
      <point x="196" y="72"/>
      <point x="144" y="164"/>
      <point x="144" y="288" type="curve" smooth="yes"/>
      <point x="144" y="412"/>
      <point x="196" y="504"/>
      <point x="320" y="504" type="curve" smooth="yes"/>
      <point x="408" y="504"/>
      <point x="454" y="442"/>
      <point x="468" y="392" type="curve"/>
      <point x="484" y="376" type="line"/>
      <point x="552" y="376" type="line"/>
      <point x="568" y="392" type="line"/>
      <point x="568" y="408" type="line"/>
      <point x="544" y="484"/>
      <point x="474" y="592"/>
      <point x="320" y="592" type="curve" smooth="yes"/>
      <point x="144" y="592"/>
      <point x="40" y="464"/>
      <point x="40" y="288" type="curve" smooth="yes"/>
      <point x="40" y="112"/>
      <point x="144" y="-16"/>
    </contour>
  </outline>
</glyph>
<glyph name="e" format="2">
  <advance width="604"/>
  <unicode hex="0065"/>
  <outline>
    <contour>
      <point x="144" y="338" type="line"/>
      <point x="136" y="346" type="line"/>
      <point x="136" y="418"/>
      <point x="188" y="504"/>
      <point x="308" y="504" type="curve" smooth="yes"/>
      <point x="428" y="504"/>
      <point x="476" y="418"/>
      <point x="476" y="346" type="curve"/>
      <point x="468" y="338" type="line"/>
    </contour>
    <contour>
      <point x="308" y="-16" type="curve" smooth="yes"/>
      <point x="472" y="-16"/>
      <point x="558" y="80"/>
      <point x="562" y="168" type="curve"/>
      <point x="546" y="184" type="line"/>
      <point x="484" y="184" type="line"/>
      <point x="476" y="176" type="line"/>
      <point x="456" y="114"/>
      <point x="404" y="72"/>
      <point x="308" y="72" type="curve" smooth="yes"/>
      <point x="208" y="72"/>
      <point x="144" y="160"/>
      <point x="136" y="248" type="curve"/>
      <point x="144" y="256" type="line"/>
      <point x="556" y="256" type="line"/>
      <point x="572" y="272" type="line"/>
      <point x="572" y="304" type="line" smooth="yes"/>
      <point x="572" y="496"/>
      <point x="454" y="592"/>
      <point x="308" y="592" type="curve" smooth="yes"/>
      <point x="132" y="592"/>
      <point x="28" y="464"/>
      <point x="28" y="288" type="curve" smooth="yes"/>
      <point x="28" y="112"/>
      <point x="140" y="-16"/>
    </contour>
  </outline>
</glyph>
<glyph name="g" format="2">
  <advance width="616"/>
  <unicode hex="0067"/>
  <anchor x="264" y="-224" name="bottom"/>
  <anchor x="252" y="576" name="top"/>
  <outline>
    <contour>
      <point x="536" y="576" type="line"/>
      <point x="472" y="576" type="line"/>
      <point x="456" y="560" type="line"/>
      <point x="456" y="512" type="line"/>
      <point x="448" y="512" type="line"/>
      <point x="410" y="562"/>
      <point x="344" y="592"/>
      <point x="280" y="592" type="curve" smooth="yes"/>
      <point x="148" y="592"/>
      <point x="40" y="464"/>
      <point x="40" y="304" type="curve" smooth="yes"/>
      <point x="40" y="144"/>
      <point x="146" y="16"/>
      <point x="280" y="16" type="curve" smooth="yes"/>
      <point x="350" y="16"/>
      <point x="418" y="50"/>
      <point x="448" y="104" type="curve"/>
      <point x="456" y="104" type="line"/>
      <point x="456" y="-6" type="line" smooth="yes"/>
      <point x="456" y="-104"/>
      <point x="394" y="-168"/>
      <point x="296" y="-168" type="curve" smooth="yes"/>
      <point x="220" y="-168"/>
      <point x="164" y="-130"/>
      <point x="150" y="-68" type="curve"/>
      <point x="134" y="-52" type="line"/>
      <point x="72" y="-52" type="line"/>
      <point x="56" y="-68" type="line"/>
      <point x="56" y="-84" type="line"/>
      <point x="74" y="-196"/>
      <point x="158" y="-256"/>
      <point x="296" y="-256" type="curve" smooth="yes"/>
      <point x="468" y="-256"/>
      <point x="552" y="-164"/>
      <point x="552" y="26" type="curve" smooth="yes"/>
      <point x="552" y="560" type="line"/>
    </contour>
    <contour>
      <point x="296" y="104" type="curve" smooth="yes"/>
      <point x="200" y="104"/>
      <point x="136" y="184"/>
      <point x="136" y="304" type="curve" smooth="yes"/>
      <point x="136" y="424"/>
      <point x="200" y="504"/>
      <point x="296" y="504" type="curve" smooth="yes"/>
      <point x="392" y="504"/>
      <point x="456" y="426"/>
      <point x="456" y="304" type="curve" smooth="yes"/>
      <point x="456" y="182"/>
      <point x="392" y="104"/>
    </contour>
  </outline>
</glyph>
<glyph name="l" format="2">
	<unicode hex="006C"/>
	<advance width="252"/>
	<outline>
		<contour>
			<point x="164" y="0" type="curve" smooth="yes"/>
			<point x="220" y="0" type="line"/>
			<point x="236" y="16" type="line"/>
			<point x="236" y="72" type="line"/>
			<point x="220" y="88" type="line"/>
			<point x="196" y="88" type="line" smooth="yes"/>
			<point x="168" y="88"/>
			<point x="156" y="104"/>
			<point x="156" y="136" type="curve" smooth="yes"/>
			<point x="156" y="752" type="line"/>
			<point x="140" y="768" type="line"/>
			<point x="76" y="768" type="line"/>
			<point x="60" y="752" type="line"/>
			<point x="60" y="104" type="line" smooth="yes"/>
			<point x="60" y="40"/>
			<point x="100" y="0"/>
		</contour>
	</outline>
</glyph>
<glyph name="m" format="2">
  <advance width="868"/>
  <unicode hex="006D"/>
  <outline>
    <contour>
      <point x="80" y="0" type="line"/>
      <point x="144" y="0" type="line"/>
      <point x="160" y="16" type="line"/>
      <point x="160" y="352" type="line" smooth="yes"/>
      <point x="160" y="456"/>
      <point x="198" y="504"/>
      <point x="276" y="504" type="curve" smooth="yes"/>
      <point x="354" y="504"/>
      <point x="392" y="456"/>
      <point x="392" y="352" type="curve" smooth="yes"/>
      <point x="392" y="16" type="line"/>
      <point x="408" y="0" type="line"/>
      <point x="464" y="0" type="line"/>
      <point x="480" y="16" type="line"/>
      <point x="480" y="352" type="line" smooth="yes"/>
      <point x="480" y="456"/>
      <point x="518" y="504"/>
      <point x="596" y="504" type="curve" smooth="yes"/>
      <point x="674" y="504"/>
      <point x="712" y="456"/>
      <point x="712" y="352" type="curve" smooth="yes"/>
      <point x="712" y="16" type="line"/>
      <point x="728" y="0" type="line"/>
      <point x="792" y="0" type="line"/>
      <point x="808" y="16" type="line"/>
      <point x="808" y="376" type="line" smooth="yes"/>
      <point x="808" y="514"/>
      <point x="742" y="592"/>
      <point x="628" y="592" type="curve" smooth="yes"/>
      <point x="556" y="592"/>
      <point x="502" y="560"/>
      <point x="470" y="496" type="curve"/>
      <point x="462" y="496" type="line"/>
      <point x="444" y="550"/>
      <point x="376" y="592"/>
      <point x="308" y="592" type="curve" smooth="yes"/>
      <point x="254" y="592"/>
      <point x="206" y="564"/>
      <point x="168" y="512" type="curve"/>
      <point x="160" y="512" type="line"/>
      <point x="160" y="560" type="line"/>
      <point x="144" y="576" type="line"/>
      <point x="80" y="576" type="line"/>
      <point x="64" y="560" type="line"/>
      <point x="64" y="16" type="line"/>
    </contour>
  </outline>
</glyph>
<glyph name="n" format="2">
  <advance width="562"/>
  <unicode hex="006E"/>
  <outline>
    <contour>
      <point x="66" y="0" type="line"/>
      <point x="130" y="0" type="line"/>
      <point x="146" y="16" type="line"/>
      <point x="146" y="352" type="line" smooth="yes"/>
      <point x="146" y="448"/>
      <point x="186" y="512"/>
      <point x="282" y="512" type="curve" smooth="yes"/>
      <point x="378" y="512"/>
      <point x="418" y="448"/>
      <point x="418" y="352" type="curve" smooth="yes"/>
      <point x="418" y="16" type="line"/>
      <point x="434" y="0" type="line"/>
      <point x="498" y="0" type="line"/>
      <point x="514" y="16" type="line"/>
      <point x="514" y="384" type="line" smooth="yes"/>
      <point x="514" y="512"/>
      <point x="442" y="592"/>
      <point x="314" y="592" type="curve" smooth="yes"/>
      <point x="250" y="592"/>
      <point x="186" y="560"/>
      <point x="154" y="512" type="curve"/>
      <point x="146" y="512" type="line"/>
      <point x="146" y="560" type="line"/>
      <point x="130" y="576" type="line"/>
      <point x="66" y="576" type="line"/>
      <point x="50" y="560" type="line"/>
      <point x="50" y="16" type="line"/>
    </contour>
  </outline>
</glyph>
<glyph name="o" format="2">
  <advance width="608"/>
  <unicode hex="006F"/>
  <outline>
    <contour>
      <point x="304" y="-16" type="curve" smooth="yes"/>
      <point x="480" y="-16"/>
      <point x="584" y="112"/>
      <point x="584" y="288" type="curve" smooth="yes"/>
      <point x="584" y="464"/>
      <point x="480" y="592"/>
      <point x="304" y="592" type="curve" smooth="yes"/>
      <point x="128" y="592"/>
      <point x="24" y="464"/>
      <point x="24" y="288" type="curve" smooth="yes"/>
      <point x="24" y="112"/>
      <point x="128" y="-16"/>
    </contour>
    <contour>
      <point x="304" y="64" type="curve" smooth="yes"/>
      <point x="176" y="64"/>
      <point x="120" y="160"/>
      <point x="120" y="288" type="curve" smooth="yes"/>
      <point x="120" y="416"/>
      <point x="176" y="512"/>
      <point x="304" y="512" type="curve" smooth="yes"/>
      <point x="432" y="512"/>
      <point x="488" y="416"/>
      <point x="488" y="288" type="curve" smooth="yes"/>
      <point x="488" y="160"/>
      <point x="432" y="64"/>
    </contour>
  </outline>
</glyph>
<glyph name="r" format="2">
  <advance width="312"/>
  <unicode hex="0072"/>
  <outline>
    <contour>
      <point x="72" y="0" type="line"/>
      <point x="136" y="0" type="line"/>
      <point x="152" y="16" type="line"/>
      <point x="152" y="328" type="line" smooth="yes"/>
      <point x="152" y="456"/>
      <point x="184" y="488"/>
      <point x="280" y="488" type="curve" smooth="yes"/>
      <point x="312" y="488" type="line"/>
      <point x="328" y="504" type="line"/>
      <point x="328" y="560" type="line"/>
      <point x="312" y="576" type="line"/>
      <point x="280" y="576" type="line" smooth="yes"/>
      <point x="240" y="576"/>
      <point x="192" y="560"/>
      <point x="160" y="512" type="curve"/>
      <point x="152" y="512" type="line"/>
      <point x="152" y="560" type="line"/>
      <point x="136" y="576" type="line"/>
      <point x="72" y="576" type="line"/>
      <point x="56" y="560" type="line"/>
      <point x="56" y="16" type="line"/>
    </contour>
  </outline>
</glyph>
<glyph name="s" format="2">
	<unicode hex="0073"/>
	<advance width="528"/>
	<outline>
		<contour>
			<point x="264" y="-16" type="curve" smooth="yes"/>
			<point x="410" y="-16"/>
			<point x="496" y="50"/>
			<point x="496" y="160" type="curve" smooth="yes"/>
			<point x="496" y="248"/>
			<point x="442" y="298"/>
			<point x="318" y="330" type="curve" smooth="yes"/>
			<point x="286" y="338" type="line" smooth="yes"/>
			<point x="178" y="366"/>
			<point x="144" y="388"/>
			<point x="144" y="436" type="curve" smooth="yes"/>
			<point x="144" y="486"/>
			<point x="180" y="512"/>
			<point x="248" y="512" type="curve" smooth="yes"/>
			<point x="326" y="512"/>
			<point x="376" y="476"/>
			<point x="376" y="420" type="curve"/>
			<point x="392" y="404" type="line"/>
			<point x="448" y="404" type="line"/>
			<point x="464" y="420" type="line"/>
			<point x="462" y="442" type="line"/>
			<point x="450" y="534"/>
			<point x="368" y="592"/>
			<point x="248" y="592" type="curve" smooth="yes"/>
			<point x="126" y="592"/>
			<point x="48" y="526"/>
			<point x="48" y="424" type="curve" smooth="yes"/>
			<point x="48" y="340"/>
			<point x="100" y="294"/>
			<point x="230" y="260" type="curve" smooth="yes"/>
			<point x="262" y="252" type="line" smooth="yes"/>
			<point x="360" y="228"/>
			<point x="400" y="198"/>
			<point x="400" y="148" type="curve" smooth="yes"/>
			<point x="400" y="96"/>
			<point x="348" y="64"/>
			<point x="264" y="64" type="curve" smooth="yes"/>
			<point x="174" y="64"/>
			<point x="120" y="104"/>
			<point x="120" y="172" type="curve"/>
			<point x="104" y="188" type="line"/>
			<point x="48" y="188" type="line"/>
			<point x="32" y="172" type="line"/>
			<point x="32" y="152" type="line"/>
			<point x="40" y="46"/>
			<point x="124" y="-16"/>
		</contour>
	</outline>
</glyph>
<glyph name="t" format="2">
  <advance width="288"/>
  <unicode hex="0074"/>
  <outline>
    <contour>
      <point x="208" y="0" type="curve" smooth="yes"/>
      <point x="272" y="0" type="line"/>
      <point x="288" y="16" type="line"/>
      <point x="288" y="64" type="line"/>
      <point x="272" y="80" type="line"/>
      <point x="224" y="80" type="line" smooth="yes"/>
      <point x="192" y="80"/>
      <point x="176" y="96"/>
      <point x="176" y="128" type="curve" smooth="yes"/>
      <point x="176" y="488" type="line"/>
      <point x="184" y="496" type="line"/>
      <point x="272" y="496" type="line"/>
      <point x="288" y="512" type="line"/>
      <point x="288" y="560" type="line"/>
      <point x="272" y="576" type="line"/>
      <point x="184" y="576" type="line"/>
      <point x="176" y="584" type="line"/>
      <point x="176" y="720" type="line"/>
      <point x="160" y="736" type="line"/>
      <point x="96" y="736" type="line"/>
      <point x="80" y="720" type="line"/>
      <point x="80" y="584" type="line"/>
      <point x="72" y="576" type="line"/>
      <point x="16" y="576" type="line"/>
      <point x="0" y="560" type="line"/>
      <point x="0" y="512" type="line"/>
      <point x="16" y="496" type="line"/>
      <point x="72" y="496" type="line"/>
      <point x="80" y="488" type="line"/>
      <point x="80" y="128" type="line" smooth="yes"/>
      <point x="80" y="32"/>
      <point x="112" y="0"/>
    </contour>
  </outline>
</glyph>
<glyph name="v" format="2">
  <advance width="510"/>
  <unicode hex="0076"/>
  <outline>
    <contour>
      <point x="206" y="0" type="line"/>
      <point x="304" y="0" type="line"/>
      <point x="320" y="16" type="line"/>
      <point x="494" y="512" type="line"/>
      <point x="494" y="560" type="line"/>
      <point x="478" y="576" type="line"/>
      <point x="430" y="576" type="line"/>
      <point x="414" y="560" type="line"/>
      <point x="262" y="108" type="line"/>
      <point x="254" y="108" type="line"/>
      <point x="102" y="560" type="line"/>
      <point x="86" y="576" type="line"/>
      <point x="32" y="576" type="line"/>
      <point x="16" y="560" type="line"/>
      <point x="16" y="512" type="line"/>
      <point x="190" y="16" type="line"/>
    </contour>
  </outline>
</glyph>
<glyph name="x" format="2">
	<unicode hex="0078"/>
	<advance width="512"/>
	<outline>
		<contour>
			<point x="48" y="0" type="line"/>
			<point x="88" y="0" type="line"/>
			<point x="252" y="242" type="line"/>
			<point x="260" y="242" type="line"/>
			<point x="424" y="0" type="line"/>
			<point x="464" y="0" type="line"/>
			<point x="480" y="16" type="line"/>
			<point x="480" y="64" type="line"/>
			<point x="312" y="306" type="line"/>
			<point x="312" y="314" type="line"/>
			<point x="452" y="512" type="line"/>
			<point x="452" y="560" type="line"/>
			<point x="436" y="576" type="line"/>
			<point x="396" y="576" type="line"/>
			<point x="260" y="370" type="line"/>
			<point x="252" y="370" type="line"/>
			<point x="112" y="576" type="line"/>
			<point x="72" y="576" type="line"/>
			<point x="56" y="560" type="line"/>
			<point x="56" y="512" type="line"/>
			<point x="196" y="306" type="line"/>
			<point x="196" y="298" type="line"/>
			<point x="32" y="64" type="line"/>
			<point x="32" y="16" type="line"/>
		</contour>
	</outline>
</glyph>
<glyph name="y" format="2">
	<unicode hex="0079"/>
	<advance width="510"/>
	<outline>
		<contour>
			<point x="16" y="-200" type="line"/>
			<point x="70" y="-200" type="line" smooth="yes"/>
			<point x="194" y="-200"/>
			<point x="232" y="-166"/>
			<point x="270" y="-72" type="curve" smooth="yes"/>
			<point x="502" y="512" type="line"/>
			<point x="502" y="560" type="line"/>
			<point x="486" y="576" type="line"/>
			<point x="430" y="576" type="line"/>
			<point x="414" y="560" type="line"/>
			<point x="260" y="150" type="line"/>
			<point x="252" y="150" type="line"/>
			<point x="106" y="560" type="line"/>
			<point x="90" y="576" type="line"/>
			<point x="32" y="576" type="line"/>
			<point x="16" y="560" type="line"/>
			<point x="16" y="512" type="line"/>
			<point x="202" y="16" type="line"/>
			<point x="202" y="0" type="line"/>
			<point x="186" y="-40" type="line" smooth="yes"/>
			<point x="166" y="-90"/>
			<point x="140" y="-112"/>
			<point x="70" y="-112" type="curve" smooth="yes"/>
			<point x="16" y="-112" type="line"/>
			<point x="0" y="-128" type="line"/>
			<point x="0" y="-184" type="line"/>
		</contour>
	</outline>
	<anchor name="bottom" x="262" y="0"/>
	<anchor name="top" x="258" y="576"/>
</glyph>
<glyph name="alef-ar" format="2">
	<unicode hex="0627"/>
	<advance width="288"/>
	<outline>
		<contour>
			<point x="112" y="0" type="line"/>
			<point x="176" y="0" type="line"/>
			<point x="192" y="16" type="line"/>
			<point x="192" y="752" type="line"/>
			<point x="176" y="768" type="line"/>
			<point x="112" y="768" type="line"/>
			<point x="96" y="752" type="line"/>
			<point x="96" y="16" type="line"/>
		</contour>
	</outline>
	<anchor name="top" x="144" y="768"/>
	<anchor name="bottom" x="144" y="0"/>
</glyph>
<glyph name="hamzabelow-ar" format="2">
  <advance width="224"/>
  <unicode hex="0655"/>
  <anchor x="116" y="0" name="bottom"/>
  <outline>
    <contour>
      <point x="28" y="-296" type="line"/>
      <point x="200" y="-296" type="line"/>
      <point x="216" y="-280" type="line"/>
      <point x="216" y="-240" type="line"/>
      <point x="200" y="-224" type="line"/>
      <point x="176" y="-224" type="line" smooth="yes"/>
      <point x="120" y="-224"/>
      <point x="96" y="-200"/>
      <point x="96" y="-160" type="curve" smooth="yes"/>
      <point x="96" y="-144"/>
      <point x="104" y="-128"/>
      <point x="120" y="-128" type="curve" smooth="yes"/>
      <point x="136" y="-128"/>
      <point x="144" y="-144"/>
      <point x="144" y="-160" type="curve" smooth="yes"/>
      <point x="144" y="-168" type="line"/>
      <point x="160" y="-184" type="line"/>
      <point x="200" y="-184" type="line"/>
      <point x="216" y="-168" type="line"/>
      <point x="216" y="-160" type="line" smooth="yes"/>
      <point x="216" y="-104"/>
      <point x="176" y="-64"/>
      <point x="120" y="-64" type="curve" smooth="yes"/>
      <point x="64" y="-64"/>
      <point x="24" y="-104"/>
      <point x="24" y="-152" type="curve" smooth="yes"/>
      <point x="24" y="-176"/>
      <point x="32" y="-200"/>
      <point x="56" y="-216" type="curve"/>
      <point x="56" y="-224" type="line"/>
      <point x="24" y="-224" type="line"/>
      <point x="8" y="-240" type="line"/>
      <point x="8" y="-280" type="line"/>
    </contour>
  </outline>
</glyph>
<glyph name="E004" format="2">
  <advance width="768"/>
  <unicode hex="E004"/>
  <outline>
    <contour>
      <point x="88" y="40" type="curve" smooth="yes"/>
      <point x="62" y="40"/>
      <point x="40" y="62"/>
      <point x="40" y="88" type="curve" smooth="yes"/>
      <point x="40" y="116"/>
      <point x="62" y="136"/>
      <point x="88" y="136" type="curve" smooth="yes"/>
      <point x="116" y="136"/>
      <point x="136" y="116"/>
      <point x="136" y="88" type="curve" smooth="yes"/>
      <point x="136" y="62"/>
      <point x="116" y="40"/>
    </contour>
    <contour>
      <point x="88" y="-8" type="curve" smooth="yes"/>
      <point x="142" y="-8"/>
      <point x="184" y="36"/>
      <point x="184" y="88" type="curve" smooth="yes"/>
      <point x="184" y="142"/>
      <point x="142" y="184"/>
      <point x="88" y="184" type="curve" smooth="yes"/>
      <point x="36" y="184"/>
      <point x="-8" y="142"/>
      <point x="-8" y="88" type="curve" smooth="yes"/>
      <point x="-8" y="36"/>
      <point x="36" y="-8"/>
    </contour>
    <contour>
      <point x="88" y="336" type="curve" smooth="yes"/>
      <point x="62" y="336"/>
      <point x="40" y="358"/>
      <point x="40" y="384" type="curve" smooth="yes"/>
      <point x="40" y="412"/>
      <point x="62" y="432"/>
      <point x="88" y="432" type="curve" smooth="yes"/>
      <point x="116" y="432"/>
      <point x="136" y="412"/>
      <point x="136" y="384" type="curve" smooth="yes"/>
      <point x="136" y="358"/>
      <point x="116" y="336"/>
    </contour>
    <contour>
      <point x="88" y="288" type="curve" smooth="yes"/>
      <point x="142" y="288"/>
      <point x="184" y="332"/>
      <point x="184" y="384" type="curve" smooth="yes"/>
      <point x="184" y="438"/>
      <point x="142" y="480"/>
      <point x="88" y="480" type="curve" smooth="yes"/>
      <point x="36" y="480"/>
      <point x="-8" y="438"/>
      <point x="-8" y="384" type="curve" smooth="yes"/>
      <point x="-8" y="332"/>
      <point x="36" y="288"/>
    </contour>
    <contour>
      <point x="88" y="632" type="curve" smooth="yes"/>
      <point x="62" y="632"/>
      <point x="40" y="654"/>
      <point x="40" y="680" type="curve" smooth="yes"/>
      <point x="40" y="708"/>
      <point x="62" y="728"/>
      <point x="88" y="728" type="curve" smooth="yes"/>
      <point x="116" y="728"/>
      <point x="136" y="708"/>
      <point x="136" y="680" type="curve" smooth="yes"/>
      <point x="136" y="654"/>
      <point x="116" y="632"/>
    </contour>
    <contour>
      <point x="88" y="584" type="curve" smooth="yes"/>
      <point x="142" y="584"/>
      <point x="184" y="628"/>
      <point x="184" y="680" type="curve" smooth="yes"/>
      <point x="184" y="734"/>
      <point x="142" y="776"/>
      <point x="88" y="776" type="curve" smooth="yes"/>
      <point x="36" y="776"/>
      <point x="-8" y="734"/>
      <point x="-8" y="680" type="curve" smooth="yes"/>
      <point x="-8" y="628"/>
      <point x="36" y="584"/>
    </contour>
    <contour>
      <point x="384" y="40" type="curve" smooth="yes"/>
      <point x="358" y="40"/>
      <point x="336" y="62"/>
      <point x="336" y="88" type="curve" smooth="yes"/>
      <point x="336" y="116"/>
      <point x="358" y="136"/>
      <point x="384" y="136" type="curve" smooth="yes"/>
      <point x="412" y="136"/>
      <point x="432" y="116"/>
      <point x="432" y="88" type="curve" smooth="yes"/>
      <point x="432" y="62"/>
      <point x="412" y="40"/>
    </contour>
    <contour>
      <point x="384" y="-8" type="curve" smooth="yes"/>
      <point x="438" y="-8"/>
      <point x="480" y="36"/>
      <point x="480" y="88" type="curve" smooth="yes"/>
      <point x="480" y="142"/>
      <point x="438" y="184"/>
      <point x="384" y="184" type="curve" smooth="yes"/>
      <point x="332" y="184"/>
      <point x="288" y="142"/>
      <point x="288" y="88" type="curve" smooth="yes"/>
      <point x="288" y="36"/>
      <point x="332" y="-8"/>
    </contour>
    <contour>
      <point x="384" y="336" type="curve" smooth="yes"/>
      <point x="358" y="336"/>
      <point x="336" y="358"/>
      <point x="336" y="384" type="curve" smooth="yes"/>
      <point x="336" y="412"/>
      <point x="358" y="432"/>
      <point x="384" y="432" type="curve" smooth="yes"/>
      <point x="412" y="432"/>
      <point x="432" y="412"/>
      <point x="432" y="384" type="curve" smooth="yes"/>
      <point x="432" y="358"/>
      <point x="412" y="336"/>
    </contour>
    <contour>
      <point x="384" y="288" type="curve" smooth="yes"/>
      <point x="438" y="288"/>
      <point x="480" y="332"/>
      <point x="480" y="384" type="curve" smooth="yes"/>
      <point x="480" y="438"/>
      <point x="438" y="480"/>
      <point x="384" y="480" type="curve" smooth="yes"/>
      <point x="332" y="480"/>
      <point x="288" y="438"/>
      <point x="288" y="384" type="curve" smooth="yes"/>
      <point x="288" y="332"/>
      <point x="332" y="288"/>
    </contour>
    <contour>
      <point x="384" y="632" type="curve" smooth="yes"/>
      <point x="358" y="632"/>
      <point x="336" y="654"/>
      <point x="336" y="680" type="curve" smooth="yes"/>
      <point x="336" y="708"/>
      <point x="358" y="728"/>
      <point x="384" y="728" type="curve" smooth="yes"/>
      <point x="412" y="728"/>
      <point x="432" y="708"/>
      <point x="432" y="680" type="curve" smooth="yes"/>
      <point x="432" y="654"/>
      <point x="412" y="632"/>
    </contour>
    <contour>
      <point x="384" y="584" type="curve" smooth="yes"/>
      <point x="438" y="584"/>
      <point x="480" y="628"/>
      <point x="480" y="680" type="curve" smooth="yes"/>
      <point x="480" y="734"/>
      <point x="438" y="776"/>
      <point x="384" y="776" type="curve" smooth="yes"/>
      <point x="332" y="776"/>
      <point x="288" y="734"/>
      <point x="288" y="680" type="curve" smooth="yes"/>
      <point x="288" y="628"/>
      <point x="332" y="584"/>
    </contour>
    <contour>
      <point x="680" y="40" type="curve" smooth="yes"/>
      <point x="654" y="40"/>
      <point x="632" y="62"/>
      <point x="632" y="88" type="curve" smooth="yes"/>
      <point x="632" y="116"/>
      <point x="654" y="136"/>
      <point x="680" y="136" type="curve" smooth="yes"/>
      <point x="708" y="136"/>
      <point x="728" y="116"/>
      <point x="728" y="88" type="curve" smooth="yes"/>
      <point x="728" y="62"/>
      <point x="708" y="40"/>
    </contour>
    <contour>
      <point x="680" y="-8" type="curve" smooth="yes"/>
      <point x="734" y="-8"/>
      <point x="776" y="36"/>
      <point x="776" y="88" type="curve" smooth="yes"/>
      <point x="776" y="142"/>
      <point x="734" y="184"/>
      <point x="680" y="184" type="curve" smooth="yes"/>
      <point x="628" y="184"/>
      <point x="584" y="142"/>
      <point x="584" y="88" type="curve" smooth="yes"/>
      <point x="584" y="36"/>
      <point x="628" y="-8"/>
    </contour>
    <contour>
      <point x="680" y="336" type="curve" smooth="yes"/>
      <point x="654" y="336"/>
      <point x="632" y="358"/>
      <point x="632" y="384" type="curve" smooth="yes"/>
      <point x="632" y="412"/>
      <point x="654" y="432"/>
      <point x="680" y="432" type="curve" smooth="yes"/>
      <point x="708" y="432"/>
      <point x="728" y="412"/>
      <point x="728" y="384" type="curve" smooth="yes"/>
      <point x="728" y="358"/>
      <point x="708" y="336"/>
    </contour>
    <contour>
      <point x="680" y="288" type="curve" smooth="yes"/>
      <point x="734" y="288"/>
      <point x="776" y="332"/>
      <point x="776" y="384" type="curve" smooth="yes"/>
      <point x="776" y="438"/>
      <point x="734" y="480"/>
      <point x="680" y="480" type="curve" smooth="yes"/>
      <point x="628" y="480"/>
      <point x="584" y="438"/>
      <point x="584" y="384" type="curve" smooth="yes"/>
      <point x="584" y="332"/>
      <point x="628" y="288"/>
    </contour>
    <contour>
      <point x="680" y="632" type="curve" smooth="yes"/>
      <point x="654" y="632"/>
      <point x="632" y="654"/>
      <point x="632" y="680" type="curve" smooth="yes"/>
      <point x="632" y="708"/>
      <point x="654" y="728"/>
      <point x="680" y="728" type="curve" smooth="yes"/>
      <point x="708" y="728"/>
      <point x="728" y="708"/>
      <point x="728" y="680" type="curve" smooth="yes"/>
      <point x="728" y="654"/>
      <point x="708" y="632"/>
    </contour>
    <contour>
      <point x="680" y="584" type="curve" smooth="yes"/>
      <point x="734" y="584"/>
      <point x="776" y="628"/>
      <point x="776" y="680" type="curve" smooth="yes"/>
      <point x="776" y="734"/>
      <point x="734" y="776"/>
      <point x="680" y="776" type="curve" smooth="yes"/>
      <point x="628" y="776"/>
      <point x="584" y="734"/>
      <point x="584" y="680" type="curve" smooth="yes"/>
      <point x="584" y="628"/>
      <point x="628" y="584"/>
    </contour>
    <contour>
      <point x="56" y="176" type="line"/>
      <point x="120" y="176" type="line"/>
      <point x="120" y="304" type="line"/>
      <point x="56" y="304" type="line"/>
    </contour>
    <contour>
      <point x="56" y="464" type="line"/>
      <point x="120" y="464" type="line"/>
      <point x="120" y="592" type="line"/>
      <point x="56" y="592" type="line"/>
    </contour>
    <contour>
      <point x="352" y="176" type="line"/>
      <point x="416" y="176" type="line"/>
      <point x="416" y="304" type="line"/>
      <point x="352" y="304" type="line"/>
    </contour>
    <contour>
      <point x="352" y="464" type="line"/>
      <point x="416" y="464" type="line"/>
      <point x="416" y="592" type="line"/>
      <point x="352" y="592" type="line"/>
    </contour>
    <contour>
      <point x="648" y="176" type="line"/>
      <point x="712" y="176" type="line"/>
      <point x="712" y="304" type="line"/>
      <point x="648" y="304" type="line"/>
    </contour>
    <contour>
      <point x="648" y="464" type="line"/>
      <point x="712" y="464" type="line"/>
      <point x="712" y="592" type="line"/>
      <point x="648" y="592" type="line"/>
    </contour>
    <contour>
      <point x="464" y="648" type="line"/>
      <point x="592" y="648" type="line"/>
      <point x="592" y="712" type="line"/>
      <point x="464" y="712" type="line"/>
    </contour>
    <contour>
      <point x="176" y="648" type="line"/>
      <point x="304" y="648" type="line"/>
      <point x="304" y="712" type="line"/>
      <point x="176" y="712" type="line"/>
    </contour>
    <contour>
      <point x="464" y="352" type="line"/>
      <point x="592" y="352" type="line"/>
      <point x="592" y="416" type="line"/>
      <point x="464" y="416" type="line"/>
    </contour>
    <contour>
      <point x="176" y="352" type="line"/>
      <point x="304" y="352" type="line"/>
      <point x="304" y="416" type="line"/>
      <point x="176" y="416" type="line"/>
    </contour>
    <contour>
      <point x="464" y="56" type="line"/>
      <point x="592" y="56" type="line"/>
      <point x="592" y="120" type="line"/>
      <point x="464" y="120" type="line"/>
    </contour>
    <contour>
      <point x="176" y="56" type="line"/>
      <point x="304" y="56" type="line"/>
      <point x="304" y="120" type="line"/>
      <point x="176" y="120" type="line"/>
    </contour>
  </outline>
</glyph>
<glyph name="E009" format="2">
  <advance width="768"/>
  <unicode hex="E009"/>
  <outline>
    <contour>
      <point x="64" y="-8" type="curve" smooth="yes"/>
      <point x="94" y="-8"/>
      <point x="114" y="10"/>
      <point x="124" y="24" type="curve" smooth="yes"/>
      <point x="130" y="32"/>
      <point x="136" y="40"/>
      <point x="148" y="40" type="curve" smooth="yes"/>
      <point x="316" y="40" type="line"/>
      <point x="326" y="12"/>
      <point x="352" y="-8"/>
      <point x="384" y="-8" type="curve" smooth="yes"/>
      <point x="416" y="-8"/>
      <point x="442" y="12"/>
      <point x="452" y="40" type="curve"/>
      <point x="636" y="40" type="line"/>
      <point x="646" y="12"/>
      <point x="672" y="-8"/>
      <point x="704" y="-8" type="curve" smooth="yes"/>
      <point x="744" y="-8"/>
      <point x="776" y="24"/>
      <point x="776" y="64" type="curve" smooth="yes"/>
      <point x="776" y="96"/>
      <point x="756" y="122"/>
      <point x="728" y="132" type="curve"/>
      <point x="728" y="316" type="line"/>
      <point x="756" y="326"/>
      <point x="776" y="352"/>
      <point x="776" y="384" type="curve" smooth="yes"/>
      <point x="776" y="416"/>
      <point x="756" y="442"/>
      <point x="728" y="452" type="curve"/>
      <point x="728" y="636" type="line"/>
      <point x="756" y="646"/>
      <point x="776" y="672"/>
      <point x="776" y="704" type="curve" smooth="yes"/>
      <point x="776" y="744"/>
      <point x="744" y="776"/>
      <point x="704" y="776" type="curve" smooth="yes"/>
      <point x="672" y="776"/>
      <point x="646" y="756"/>
      <point x="636" y="728" type="curve"/>
      <point x="452" y="728" type="line"/>
      <point x="442" y="756"/>
      <point x="416" y="776"/>
      <point x="384" y="776" type="curve" smooth="yes"/>
      <point x="352" y="776"/>
      <point x="326" y="756"/>
      <point x="316" y="728" type="curve"/>
      <point x="132" y="728" type="line"/>
      <point x="122" y="756"/>
      <point x="96" y="776"/>
      <point x="64" y="776" type="curve" smooth="yes"/>
      <point x="24" y="776"/>
      <point x="-8" y="744"/>
      <point x="-8" y="704" type="curve" smooth="yes"/>
      <point x="-8" y="672"/>
      <point x="12" y="646"/>
      <point x="40" y="636" type="curve"/>
      <point x="40" y="452" type="line"/>
      <point x="12" y="442"/>
      <point x="-8" y="416"/>
      <point x="-8" y="384" type="curve" smooth="yes"/>
      <point x="-8" y="352"/>
      <point x="12" y="326"/>
      <point x="40" y="316" type="curve"/>
      <point x="40" y="132" type="line"/>
      <point x="12" y="122"/>
      <point x="-8" y="96"/>
      <point x="-8" y="64" type="curve" smooth="yes"/>
      <point x="-8" y="24"/>
      <point x="24" y="-8"/>
    </contour>
    <contour>
      <point x="110" y="120" type="curve" smooth="yes"/>
      <point x="94" y="132"/>
      <point x="88" y="134"/>
      <point x="88" y="148" type="curve" smooth="yes"/>
      <point x="88" y="316" type="line"/>
      <point x="110" y="324"/>
      <point x="124" y="338"/>
      <point x="132" y="360" type="curve"/>
      <point x="316" y="360" type="line"/>
      <point x="324" y="338"/>
      <point x="338" y="324"/>
      <point x="360" y="316" type="curve"/>
      <point x="360" y="132" type="line"/>
      <point x="338" y="124"/>
      <point x="324" y="110"/>
      <point x="316" y="88" type="curve"/>
      <point x="148" y="88" type="line" smooth="yes"/>
      <point x="132" y="88"/>
      <point x="126" y="108"/>
    </contour>
    <contour>
      <point x="88" y="452" type="curve"/>
      <point x="88" y="636" type="line"/>
      <point x="110" y="644"/>
      <point x="124" y="658"/>
      <point x="132" y="680" type="curve"/>
      <point x="316" y="680" type="line"/>
      <point x="324" y="658"/>
      <point x="338" y="644"/>
      <point x="360" y="636" type="curve"/>
      <point x="360" y="452" type="line"/>
      <point x="338" y="444"/>
      <point x="324" y="430"/>
      <point x="316" y="408" type="curve"/>
      <point x="132" y="408" type="line"/>
      <point x="124" y="430"/>
      <point x="110" y="444"/>
    </contour>
    <contour>
      <point x="408" y="132" type="curve"/>
      <point x="408" y="316" type="line"/>
      <point x="430" y="324"/>
      <point x="444" y="338"/>
      <point x="452" y="360" type="curve"/>
      <point x="636" y="360" type="line"/>
      <point x="644" y="338"/>
      <point x="658" y="324"/>
      <point x="680" y="316" type="curve"/>
      <point x="680" y="132" type="line"/>
      <point x="658" y="124"/>
      <point x="644" y="110"/>
      <point x="636" y="88" type="curve"/>
      <point x="452" y="88" type="line"/>
      <point x="444" y="110"/>
      <point x="430" y="124"/>
    </contour>
    <contour>
      <point x="408" y="452" type="curve"/>
      <point x="408" y="636" type="line"/>
      <point x="430" y="644"/>
      <point x="444" y="658"/>
      <point x="452" y="680" type="curve"/>
      <point x="636" y="680" type="line"/>
      <point x="644" y="658"/>
      <point x="658" y="644"/>
      <point x="680" y="636" type="curve"/>
      <point x="680" y="452" type="line"/>
      <point x="658" y="444"/>
      <point x="644" y="430"/>
      <point x="636" y="408" type="curve"/>
      <point x="452" y="408" type="line"/>
      <point x="444" y="430"/>
      <point x="430" y="444"/>
    </contour>
  </outline>
</glyph>
<glyph name="E010" format="2">
  <advance width="600"/>
  <unicode hex="E010"/>
  <outline>
    <contour>
      <point x="118" y="720" type="line"/>
      <point x="140" y="734" type="line"/>
      <point x="397" y="559" type="line"/>
      <point x="564" y="354" type="line"/>
      <point x="561" y="328" type="line"/>
      <point x="413" y="291" type="line"/>
      <point x="460" y="168" type="line"/>
      <point x="535" y="60" type="line"/>
      <point x="528" y="40" type="line"/>
      <point x="346" y="-29" type="line"/>
      <point x="329" y="5" type="line"/>
      <point x="311" y="129" type="line"/>
      <point x="276" y="239" type="line"/>
      <point x="181" y="195" type="line"/>
      <point x="124" y="164" type="line"/>
      <point x="87" y="175" type="line"/>
      <point x="111" y="466" type="line"/>
    </contour>
    <contour>
      <point x="149" y="653" type="line"/>
      <point x="149" y="463" type="line"/>
      <point x="129" y="226" type="line"/>
      <point x="144" y="216" type="line"/>
      <point x="184" y="251" type="line"/>
      <point x="285" y="299" type="line"/>
      <point x="353" y="148" type="line"/>
      <point x="362" y="27" type="line"/>
      <point x="357" y="1" type="line"/>
      <point x="483" y="49" type="line"/>
      <point x="494" y="58" type="line"/>
      <point x="445" y="120" type="line"/>
      <point x="369" y="317" type="line"/>
      <point x="489" y="347" type="line"/>
      <point x="499" y="379" type="line"/>
      <point x="369" y="522" type="line"/>
      <point x="171" y="679" type="line"/>
    </contour>
  </outline>
</glyph>
<glyph name="select" format="2">
  <advance width="572"/>
  <unicode hex="E010"/>
  <outline>
    <contour>
      <point x="326" y="0" type="curve" smooth="yes"/>
      <point x="296" y="0"/>
      <point x="272" y="12"/>
      <point x="272" y="40" type="curve" smooth="yes"/>
      <point x="272" y="106"/>
      <point x="248" y="234"/>
      <point x="220" y="234" type="curve" smooth="yes"/>
      <point x="186" y="234"/>
      <point x="146" y="196"/>
      <point x="114" y="196" type="curve" smooth="yes"/>
      <point x="88" y="196"/>
      <point x="66" y="202"/>
      <point x="66" y="238" type="curve" smooth="yes"/>
      <point x="64" y="694" type="line" smooth="yes"/>
      <point x="64" y="744"/>
      <point x="84" y="768"/>
      <point x="134" y="768" type="curve" smooth="yes"/>
      <point x="166" y="768"/>
      <point x="206" y="736"/>
      <point x="274" y="672" type="curve" smooth="yes"/>
      <point x="440" y="520" type="line" smooth="yes"/>
      <point x="496" y="468"/>
      <point x="540" y="438"/>
      <point x="540" y="380" type="curve" smooth="yes"/>
      <point x="540" y="338"/>
      <point x="532" y="308"/>
      <point x="500" y="308" type="curve" smooth="yes"/>
      <point x="462" y="308"/>
      <point x="450" y="318"/>
      <point x="414" y="318" type="curve" smooth="yes"/>
      <point x="394" y="318"/>
      <point x="386" y="310"/>
      <point x="386" y="292" type="curve" smooth="yes"/>
      <point x="386" y="258"/>
      <point x="502" y="176"/>
      <point x="502" y="90" type="curve" smooth="yes"/>
      <point x="502" y="34"/>
      <point x="432" y="0"/>
    </contour>
    <contour>
      <point x="358" y="44" type="curve" smooth="yes"/>
      <point x="410" y="44"/>
      <point x="452" y="60"/>
      <point x="452" y="90" type="curve" smooth="yes"/>
      <point x="452" y="162"/>
      <point x="328" y="250"/>
      <point x="328" y="302" type="curve" smooth="yes"/>
      <point x="328" y="336"/>
      <point x="338" y="358"/>
      <point x="376" y="358" type="curve" smooth="yes"/>
      <point x="394" y="358"/>
      <point x="416" y="350"/>
      <point x="442" y="350" type="curve" smooth="yes"/>
      <point x="452" y="350"/>
      <point x="462" y="360"/>
      <point x="462" y="382" type="curve" smooth="yes"/>
      <point x="462" y="402"/>
      <point x="428" y="432"/>
      <point x="382" y="476" type="curve" smooth="yes"/>
      <point x="208" y="644" type="line" smooth="yes"/>
      <point x="190" y="662"/>
      <point x="172" y="684"/>
      <point x="154" y="684" type="curve" smooth="yes"/>
      <point x="140" y="684"/>
      <point x="128" y="676"/>
      <point x="128" y="654" type="curve" smooth="yes"/>
      <point x="128" y="322" type="line" smooth="yes"/>
      <point x="128" y="294"/>
      <point x="142" y="278"/>
      <point x="160" y="278" type="curve" smooth="yes"/>
      <point x="178" y="278"/>
      <point x="198" y="308"/>
      <point x="228" y="308" type="curve" smooth="yes"/>
      <point x="276" y="308"/>
      <point x="324" y="134"/>
      <point x="324" y="76" type="curve" smooth="yes"/>
      <point x="324" y="52"/>
      <point x="340" y="44"/>
    </contour>
  </outline>
</glyph>
<glyph name="E011" format="2">
  <advance width="640"/>
  <unicode hex="E011"/>
  <outline>
    <contour>
      <point x="208" y="0" type="curve" smooth="yes"/>
      <point x="424" y="0" type="line" smooth="yes"/>
      <point x="448" y="0"/>
      <point x="456" y="8"/>
      <point x="456" y="32" type="curve" smooth="yes"/>
      <point x="456" y="94" type="line" smooth="yes"/>
      <point x="456" y="118"/>
      <point x="448" y="126"/>
      <point x="424" y="126" type="curve" smooth="yes"/>
      <point x="208" y="126" type="line" smooth="yes"/>
      <point x="184" y="126"/>
      <point x="176" y="118"/>
      <point x="176" y="94" type="curve" smooth="yes"/>
      <point x="176" y="32" type="line" smooth="yes"/>
      <point x="176" y="8"/>
      <point x="184" y="0"/>
    </contour>
    <contour>
      <point x="208" y="166" type="curve" smooth="yes"/>
      <point x="424" y="166" type="line" smooth="yes"/>
      <point x="448" y="166"/>
      <point x="464" y="164"/>
      <point x="480" y="192" type="curve" smooth="yes"/>
      <point x="536" y="284" type="line" smooth="yes"/>
      <point x="544" y="296"/>
      <point x="552" y="306"/>
      <point x="552" y="316" type="curve" smooth="yes"/>
      <point x="552" y="352" type="line" smooth="yes"/>
      <point x="552" y="358"/>
      <point x="548" y="372"/>
      <point x="544" y="384" type="curve" smooth="yes"/>
      <point x="424" y="736" type="line" smooth="yes"/>
      <point x="412" y="768"/>
      <point x="400" y="768"/>
      <point x="376" y="768" type="curve" smooth="yes"/>
      <point x="368" y="768" type="line" smooth="yes"/>
      <point x="344" y="768"/>
      <point x="336" y="760"/>
      <point x="336" y="736" type="curve" smooth="yes"/>
      <point x="336" y="420" type="line" smooth="yes"/>
      <point x="336" y="398"/>
      <point x="340" y="394"/>
      <point x="346" y="390" type="curve" smooth="yes"/>
      <point x="368" y="376"/>
      <point x="380" y="360"/>
      <point x="380" y="334" type="curve" smooth="yes"/>
      <point x="380" y="298"/>
      <point x="352" y="270"/>
      <point x="316" y="270" type="curve" smooth="yes"/>
      <point x="280" y="270"/>
      <point x="252" y="298"/>
      <point x="252" y="334" type="curve" smooth="yes"/>
      <point x="252" y="360"/>
      <point x="264" y="376"/>
      <point x="286" y="390" type="curve" smooth="yes"/>
      <point x="292" y="394"/>
      <point x="296" y="398"/>
      <point x="296" y="420" type="curve" smooth="yes"/>
      <point x="296" y="736" type="line" smooth="yes"/>
      <point x="296" y="760"/>
      <point x="288" y="768"/>
      <point x="264" y="768" type="curve" smooth="yes"/>
      <point x="256" y="768" type="line" smooth="yes"/>
      <point x="232" y="768"/>
      <point x="220" y="768"/>
      <point x="208" y="736" type="curve" smooth="yes"/>
      <point x="88" y="384" type="line" smooth="yes"/>
      <point x="84" y="372"/>
      <point x="80" y="358"/>
      <point x="80" y="352" type="curve" smooth="yes"/>
      <point x="80" y="316" type="line" smooth="yes"/>
      <point x="80" y="306"/>
      <point x="88" y="296"/>
      <point x="96" y="284" type="curve" smooth="yes"/>
      <point x="152" y="192" type="line" smooth="yes"/>
      <point x="168" y="164"/>
      <point x="184" y="166"/>
    </contour>
  </outline>
</glyph>
<glyph name="E012" format="2">
  <advance width="600"/>
  <unicode hex="E012"/>
  <outline>
    <contour>
      <point x="386" y="491" type="line"/>
      <point x="288" y="517" type="line"/>
      <point x="222" y="445" type="line"/>
      <point x="233" y="347" type="line"/>
      <point x="295" y="296" type="line"/>
      <point x="446" y="271" type="line"/>
      <point x="533" y="323" type="line"/>
      <point x="597" y="483" type="line"/>
      <point x="598" y="601" type="line"/>
      <point x="487" y="721" type="line"/>
      <point x="323" y="768" type="line"/>
      <point x="49" y="709" type="line"/>
      <point x="-54" y="386" type="line"/>
      <point x="5" y="167" type="line"/>
      <point x="145" y="42" type="line"/>
      <point x="496" y="0" type="line"/>
      <point x="643" y="98" type="line"/>
      <point x="667" y="224" type="line"/>
      <point x="547" y="219" type="line"/>
      <point x="459" y="130" type="line"/>
      <point x="307" y="127" type="line"/>
      <point x="115" y="222" type="line"/>
      <point x="57" y="376" type="line"/>
      <point x="109" y="568" type="line"/>
      <point x="222" y="647" type="line"/>
      <point x="432" y="633" type="line"/>
      <point x="496" y="496" type="line"/>
      <point x="465" y="403" type="line"/>
      <point x="440" y="396"/>
      <point x="402" y="377"/>
      <point x="389" y="382" type="curve"/>
      <point x="321" y="448" type="line"/>
    </contour>
  </outline>
</glyph>
<glyph name="E013" format="2">
  <advance width="600"/>
  <unicode hex="E013"/>
  <outline>
    <contour>
      <point x="270" y="288" type="line"/>
      <point x="270" y="108" type="line"/>
      <point x="350" y="108" type="line"/>
      <point x="350" y="288" type="line"/>
    </contour>
    <contour>
      <point x="98" y="336" type="line"/>
      <point x="98" y="280" type="line"/>
      <point x="494" y="280" type="line"/>
      <point x="494" y="336" type="line"/>
    </contour>
    <contour>
      <point x="504" y="244" type="curve" smooth="yes"/>
      <point x="540" y="244"/>
      <point x="568" y="274"/>
      <point x="568" y="308" type="curve" smooth="yes"/>
      <point x="568" y="344"/>
      <point x="540" y="372"/>
      <point x="504" y="372" type="curve" smooth="yes"/>
      <point x="470" y="372"/>
      <point x="440" y="344"/>
      <point x="440" y="308" type="curve" smooth="yes"/>
      <point x="440" y="274"/>
      <point x="470" y="244"/>
    </contour>
    <contour>
      <point x="96" y="244" type="curve" smooth="yes"/>
      <point x="132" y="244"/>
      <point x="160" y="274"/>
      <point x="160" y="308" type="curve" smooth="yes"/>
      <point x="160" y="344"/>
      <point x="132" y="372"/>
      <point x="96" y="372" type="curve" smooth="yes"/>
      <point x="62" y="372"/>
      <point x="32" y="344"/>
      <point x="32" y="308" type="curve" smooth="yes"/>
      <point x="32" y="274"/>
      <point x="62" y="244"/>
    </contour>
    <contour>
      <point x="254" y="604" type="line"/>
      <point x="270" y="336" type="line"/>
      <point x="350" y="336" type="line"/>
      <point x="366" y="604" type="line"/>
      <point x="318" y="768" type="line"/>
      <point x="302" y="768" type="line"/>
    </contour>
    <contour>
      <point x="310" y="0" type="curve" smooth="yes"/>
      <point x="346" y="0"/>
      <point x="374" y="30"/>
      <point x="374" y="64" type="curve" smooth="yes"/>
      <point x="374" y="100"/>
      <point x="346" y="128"/>
      <point x="310" y="128" type="curve" smooth="yes"/>
      <point x="276" y="128"/>
      <point x="246" y="100"/>
      <point x="246" y="64" type="curve" smooth="yes"/>
      <point x="246" y="30"/>
      <point x="276" y="0"/>
    </contour>
  </outline>
</glyph>
<glyph name="E014" format="2">
  <advance width="600"/>
  <unicode hex="E014"/>
  <outline>
    <contour>
      <point x="450" y="43" type="line"/>
      <point x="209" y="49" type="line"/>
      <point x="192" y="188" type="line"/>
      <point x="53" y="240" type="line"/>
      <point x="-50" y="472" type="line"/>
      <point x="-19" y="492" type="line"/>
      <point x="73" y="406" type="line"/>
      <point x="62" y="384" type="line"/>
      <point x="123" y="339" type="line"/>
      <point x="89" y="739" type="line"/>
      <point x="111" y="769" type="line"/>
      <point x="155" y="759" type="line"/>
      <point x="191" y="491" type="line"/>
      <point x="234" y="496" type="line"/>
      <point x="197" y="810" type="line"/>
      <point x="254" y="813" type="line"/>
      <point x="294" y="514" type="line"/>
      <point x="323" y="515" type="line"/>
      <point x="341" y="756" type="line"/>
      <point x="376" y="753" type="line"/>
      <point x="382" y="511" type="line"/>
      <point x="413" y="501" type="line"/>
      <point x="433" y="694" type="line"/>
      <point x="476" y="683" type="line"/>
      <point x="442" y="223" type="line"/>
      <point x="476" y="58" type="line"/>
    </contour>
  </outline>
</glyph>
<glyph name="E015" format="2">
  <advance width="600"/>
  <unicode hex="E015"/>
  <outline>
    <contour>
      <point x="420" y="15" type="line"/>
      <point x="581" y="164" type="line"/>
      <point x="148" y="736" type="line"/>
      <point x="-25" y="586" type="line"/>
    </contour>
    <contour>
      <point x="17" y="574" type="line"/>
      <point x="114" y="663" type="line"/>
      <point x="127" y="646" type="line"/>
      <point x="28" y="558" type="line"/>
    </contour>
    <contour>
      <point x="65" y="510" type="line"/>
      <point x="130" y="570" type="line"/>
      <point x="143" y="553" type="line"/>
      <point x="76" y="494" type="line"/>
    </contour>
    <contour>
      <point x="110" y="455" type="line"/>
      <point x="207" y="544" type="line"/>
      <point x="220" y="527" type="line"/>
      <point x="121" y="439" type="line"/>
    </contour>
    <contour>
      <point x="158" y="391" type="line"/>
      <point x="223" y="451" type="line"/>
      <point x="236" y="434" type="line"/>
      <point x="169" y="375" type="line"/>
    </contour>
    <contour>
      <point x="198" y="332" type="line"/>
      <point x="295" y="421" type="line"/>
      <point x="308" y="404" type="line"/>
      <point x="209" y="316" type="line"/>
    </contour>
    <contour>
      <point x="246" y="268" type="line"/>
      <point x="311" y="328" type="line"/>
      <point x="324" y="311" type="line"/>
      <point x="257" y="252" type="line"/>
    </contour>
    <contour>
      <point x="289" y="215" type="line"/>
      <point x="386" y="304" type="line"/>
      <point x="399" y="287" type="line"/>
      <point x="300" y="199" type="line"/>
    </contour>
    <contour>
      <point x="337" y="151" type="line"/>
      <point x="402" y="211" type="line"/>
      <point x="415" y="194" type="line"/>
      <point x="348" y="135" type="line"/>
    </contour>
    <contour>
      <point x="394" y="82" type="line"/>
      <point x="491" y="171" type="line"/>
      <point x="504" y="154" type="line"/>
      <point x="405" y="66" type="line"/>
    </contour>
  </outline>
</glyph>
<glyph name="E022" format="2">
	<unicode hex="E022"/>
	<advance width="768"/>
	<outline>
		<contour>
			<point x="384" y="768" type="curve" smooth="yes"/>
			<point x="552" y="768"/>
			<point x="688" y="632"/>
			<point x="688" y="464" type="curve" smooth="yes"/>
			<point x="688" y="296"/>
			<point x="552" y="160"/>
			<point x="384" y="160" type="curve" smooth="yes"/>
			<point x="216" y="160"/>
			<point x="80" y="296"/>
			<point x="80" y="464" type="curve" smooth="yes"/>
			<point x="80" y="632"/>
			<point x="216" y="768"/>
		</contour>
		<contour>
			<point x="384" y="696" type="curve" smooth="yes"/>
			<point x="256" y="696"/>
			<point x="152" y="592"/>
			<point x="152" y="464" type="curve" smooth="yes"/>
			<point x="152" y="336"/>
			<point x="256" y="232"/>
			<point x="384" y="232" type="curve" smooth="yes"/>
			<point x="512" y="232"/>
			<point x="616" y="336"/>
			<point x="616" y="464" type="curve" smooth="yes"/>
			<point x="616" y="592"/>
			<point x="512" y="696"/>
		</contour>
		<contour>
			<point x="24" y="568" type="line"/>
			<point x="80" y="568" type="line"/>
			<point x="80" y="520" type="line"/>
			<point x="24" y="520" type="line"/>
		</contour>
		<contour>
			<point x="0" y="488" type="line"/>
			<point x="80" y="488" type="line"/>
			<point x="80" y="440" type="line"/>
			<point x="0" y="440" type="line"/>
		</contour>
		<contour>
			<point x="24" y="408" type="line"/>
			<point x="80" y="408" type="line"/>
			<point x="80" y="360" type="line"/>
			<point x="24" y="360" type="line"/>
		</contour>
		<contour>
			<point x="688" y="568" type="line"/>
			<point x="744" y="568" type="line"/>
			<point x="744" y="520" type="line"/>
			<point x="688" y="520" type="line"/>
		</contour>
		<contour>
			<point x="688" y="488" type="line"/>
			<point x="768" y="488" type="line"/>
			<point x="768" y="440" type="line"/>
			<point x="688" y="440" type="line"/>
		</contour>
		<contour>
			<point x="688" y="408" type="line"/>
			<point x="744" y="408" type="line"/>
			<point x="744" y="360" type="line"/>
			<point x="688" y="360" type="line"/>
		</contour>
		<contour>
			<point x="320" y="504" type="curve" smooth="yes"/>
			<point x="336" y="504"/>
			<point x="352" y="488"/>
			<point x="352" y="472" type="curve" smooth="yes"/>
			<point x="352" y="456"/>
			<point x="336" y="440"/>
			<point x="320" y="440" type="curve" smooth="yes"/>
			<point x="304" y="440"/>
			<point x="288" y="456"/>
			<point x="288" y="472" type="curve" smooth="yes"/>
			<point x="288" y="488"/>
			<point x="304" y="504"/>
		</contour>
		<contour>
			<point x="448" y="504" type="curve" smooth="yes"/>
			<point x="464" y="504"/>
			<point x="480" y="488"/>
			<point x="480" y="472" type="curve" smooth="yes"/>
			<point x="480" y="456"/>
			<point x="464" y="440"/>
			<point x="448" y="440" type="curve" smooth="yes"/>
			<point x="432" y="440"/>
			<point x="416" y="456"/>
			<point x="416" y="472" type="curve" smooth="yes"/>
			<point x="416" y="488"/>
			<point x="432" y="504"/>
		</contour>
		<contour>
			<point x="384" y="392" type="curve" smooth="yes"/>
			<point x="400" y="392"/>
			<point x="416" y="376"/>
			<point x="416" y="360" type="curve" smooth="yes"/>
			<point x="416" y="344"/>
			<point x="400" y="328"/>
			<point x="384" y="328" type="curve" smooth="yes"/>
			<point x="368" y="328"/>
			<point x="352" y="344"/>
			<point x="352" y="360" type="curve" smooth="yes"/>
			<point x="352" y="376"/>
			<point x="368" y="392"/>
		</contour>
	</outline>
</glyph>
<glyph name="E023" format="2">
	<unicode hex="E023"/>
	<advance width="768"/>
	<outline>
		<contour>
			<point x="56" y="72" type="line"/>
			<point x="104" y="768" type="line"/>
			<point x="168" y="768" type="line"/>
			<point x="216" y="72" type="line"/>
			<point x="176" y="72" type="line"/>
			<point x="160" y="384" type="line"/>
			<point x="112" y="384" type="line"/>
			<point x="96" y="72" type="line"/>
		</contour>
		<contour>
			<point x="112" y="448" type="line"/>
			<point x="160" y="448" type="line"/>
			<point x="144" y="640" type="line"/>
			<point x="128" y="640" type="line"/>
		</contour>
		<contour>
			<point x="552" y="768" type="line"/>
			<point x="616" y="768" type="line"/>
			<point x="728" y="72" type="line"/>
			<point x="688" y="72" type="line"/>
			<point x="584" y="640" type="line"/>
			<point x="552" y="640" type="line"/>
			<point x="448" y="72" type="line"/>
			<point x="408" y="72" type="line"/>
			<point x="520" y="768" type="line"/>
		</contour>
		<contour>
			<point x="280" y="496" type="line"/>
			<point x="360" y="496" type="line"/>
			<point x="352" y="516" type="line"/>
			<point x="376" y="516" type="line"/>
			<point x="320" y="584" type="line"/>
			<point x="264" y="516" type="line"/>
			<point x="288" y="516" type="line"/>
			<point x="280" y="496" type="line"/>
		</contour>
		<contour>
			<point x="408" y="496" type="line"/>
			<point x="488" y="496" type="line"/>
			<point x="480" y="516" type="line"/>
			<point x="504" y="516" type="line"/>
			<point x="448" y="584" type="line"/>
			<point x="392" y="516" type="line"/>
			<point x="416" y="516" type="line"/>
			<point x="408" y="496" type="line"/>
		</contour>
	</outline>
</glyph>
<glyph name="E024" format="2">
	<unicode hex="E024"/>
	<advance width="768"/>
	<outline>
		<contour>
			<point x="384" y="768" type="curve" smooth="yes"/>
			<point x="552" y="768"/>
			<point x="688" y="632"/>
			<point x="688" y="464" type="curve" smooth="yes"/>
			<point x="688" y="296"/>
			<point x="552" y="160"/>
			<point x="384" y="160" type="curve" smooth="yes"/>
			<point x="216" y="160"/>
			<point x="80" y="296"/>
			<point x="80" y="464" type="curve" smooth="yes"/>
			<point x="80" y="632"/>
			<point x="216" y="768"/>
		</contour>
		<contour>
			<point x="384" y="696" type="curve" smooth="yes"/>
			<point x="256" y="696"/>
			<point x="152" y="592"/>
			<point x="152" y="464" type="curve" smooth="yes"/>
			<point x="152" y="336"/>
			<point x="256" y="232"/>
			<point x="384" y="232" type="curve" smooth="yes"/>
			<point x="512" y="232"/>
			<point x="616" y="336"/>
			<point x="616" y="464" type="curve" smooth="yes"/>
			<point x="616" y="592"/>
			<point x="512" y="696"/>
		</contour>
		<contour>
			<point x="384" y="680" type="curve" smooth="yes"/>
			<point x="432" y="680"/>
			<point x="472" y="584"/>
			<point x="472" y="464" type="curve" smooth="yes"/>
			<point x="472" y="344"/>
			<point x="432" y="248"/>
			<point x="384" y="248" type="curve" smooth="yes"/>
			<point x="336" y="248"/>
			<point x="296" y="344"/>
			<point x="296" y="464" type="curve" smooth="yes"/>
			<point x="296" y="584"/>
			<point x="336" y="680"/>
		</contour>
		<contour>
			<point x="168" y="536" type="line"/>
			<point x="600" y="536" type="line"/>
			<point x="600" y="488" type="line"/>
			<point x="168" y="488" type="line"/>
		</contour>
		<contour>
			<point x="168" y="440" type="line"/>
			<point x="600" y="440" type="line"/>
			<point x="600" y="392" type="line"/>
			<point x="168" y="392" type="line"/>
		</contour>
		<contour>
			<point x="48" y="360" type="line"/>
			<point x="88" y="480" type="line"/>
			<point x="120" y="480" type="line"/>
			<point x="136" y="360" type="line"/>
			<point x="120" y="360" type="line"/>
			<point x="112" y="408" type="line"/>
			<point x="96" y="408" type="line"/>
			<point x="88" y="360" type="line"/>
		</contour>
		<contour>
			<point x="96" y="424" type="line"/>
			<point x="112" y="424" type="line"/>
			<point x="104" y="456" type="line"/>
			<point x="104" y="456" type="line"/>
		</contour>
		<contour>
			<point x="632" y="360" type="curve" smooth="yes"/>
			<point x="648" y="360"/>
			<point x="664" y="376"/>
			<point x="664" y="392" type="curve" smooth="yes"/>
			<point x="664" y="408"/>
			<point x="648" y="424"/>
			<point x="632" y="424" type="curve" smooth="yes"/>
			<point x="616" y="424"/>
			<point x="600" y="408"/>
			<point x="600" y="392" type="curve" smooth="yes"/>
			<point x="600" y="376"/>
			<point x="616" y="360"/>
		</contour>
		<contour>
			<point x="320" y="128" type="line"/>
			<point x="448" y="128" type="line"/>
			<point x="448" y="96" type="line"/>
			<point x="320" y="96" type="line"/>
		</contour>
		<contour>
			<point x="376" y="96" type="line"/>
			<point x="392" y="96" type="line"/>
			<point x="392" y="40" type="line"/>
			<point x="376" y="40" type="line"/>
		</contour>
		<contour>
			<point x="344" y="80" type="line"/>
			<point x="424" y="80" type="line"/>
			<point x="424" y="64" type="line"/>
			<point x="344" y="64" type="line"/>
		</contour>
	</outline>
</glyph>
<glyph name="E025" format="2">
	<unicode hex="E025"/>
	<advance width="768"/>
	<outline>
		<contour>
			<point x="384" y="584" type="curve" smooth="yes"/>
			<point x="576" y="584"/>
			<point x="736" y="464"/>
			<point x="736" y="464" type="curve"/>
			<point x="736" y="464"/>
			<point x="576" y="344"/>
			<point x="384" y="344" type="curve" smooth="yes"/>
			<point x="192" y="344"/>
			<point x="32" y="464"/>
			<point x="32" y="464" type="curve"/>
			<point x="32" y="464"/>
			<point x="192" y="584"/>
		</contour>
		<contour>
			<point x="384" y="536" type="curve" smooth="yes"/>
			<point x="424" y="536"/>
			<point x="456" y="504"/>
			<point x="456" y="464" type="curve" smooth="yes"/>
			<point x="456" y="424"/>
			<point x="424" y="392"/>
			<point x="384" y="392" type="curve" smooth="yes"/>
			<point x="344" y="392"/>
			<point x="312" y="424"/>
			<point x="312" y="464" type="curve" smooth="yes"/>
			<point x="312" y="504"/>
			<point x="344" y="536"/>
		</contour>
		<contour>
			<point x="360" y="768" type="line"/>
			<point x="408" y="768" type="line"/>
			<point x="408" y="608" type="line"/>
			<point x="360" y="608" type="line"/>
		</contour>
		<contour>
			<point x="360" y="320" type="line"/>
			<point x="408" y="320" type="line"/>
			<point x="408" y="160" type="line"/>
			<point x="360" y="160" type="line"/>
		</contour>
		<contour>
			<point x="752" y="440" type="line"/>
			<point x="752" y="488" type="line"/>
			<point x="592" y="488" type="line"/>
			<point x="592" y="440" type="line"/>
		</contour>
		<contour>
			<point x="176" y="440" type="line"/>
			<point x="176" y="488" type="line"/>
			<point x="16" y="488" type="line"/>
			<point x="16" y="440" type="line"/>
		</contour>
		<contour>
			<point x="144" y="672" type="line"/>
			<point x="184" y="672" type="line"/>
			<point x="184" y="648" type="line"/>
			<point x="168" y="648" type="line"/>
			<point x="168" y="632" type="line"/>
			<point x="144" y="632" type="line"/>
		</contour>
		<contour>
			<point x="584" y="672" type="line"/>
			<point x="624" y="672" type="line"/>
			<point x="624" y="632" type="line"/>
			<point x="600" y="632" type="line"/>
			<point x="600" y="648" type="line"/>
			<point x="584" y="648" type="line"/>
		</contour>
		<contour>
			<point x="144" y="296" type="line"/>
			<point x="168" y="296" type="line"/>
			<point x="168" y="280" type="line"/>
			<point x="184" y="280" type="line"/>
			<point x="184" y="256" type="line"/>
			<point x="144" y="256" type="line"/>
		</contour>
		<contour>
			<point x="584" y="296" type="line"/>
			<point x="624" y="296" type="line"/>
			<point x="624" y="256" type="line"/>
			<point x="584" y="256" type="line"/>
			<point x="584" y="280" type="line"/>
			<point x="600" y="280" type="line"/>
			<point x="600" y="296" type="line"/>
		</contour>
	</outline>
</glyph>
<glyph name="E026" format="2">
	<unicode hex="E026"/>
	<advance width="768"/>
	<outline>
		<contour>
			<point x="152" y="72" type="line"/>
			<point x="168" y="72" type="line"/>
			<point x="168" y="768" type="line"/>
			<point x="152" y="768" type="line"/>
		</contour>
		<contour>
			<point x="152" y="744" type="line"/>
			<point x="224" y="744" type="line"/>
			<point x="224" y="768" type="line"/>
			<point x="152" y="768" type="line"/>
		</contour>
		<contour>
			<point x="152" y="440" type="line"/>
			<point x="200" y="440" type="line"/>
			<point x="200" y="464" type="line"/>
			<point x="152" y="464" type="line"/>
		</contour>
		<contour>
			<point x="152" y="72" type="line"/>
			<point x="224" y="72" type="line"/>
			<point x="224" y="96" type="line"/>
			<point x="152" y="96" type="line"/>
		</contour>
		<contour>
			<point x="288" y="440" type="line"/>
			<point x="368" y="440" type="line"/>
			<point x="368" y="416" type="line"/>
			<point x="416" y="464" type="line"/>
			<point x="368" y="512" type="line"/>
			<point x="368" y="488" type="line"/>
			<point x="288" y="488" type="line"/>
		</contour>
		<contour>
			<point x="472" y="72" type="line"/>
			<point x="536" y="72" type="line"/>
			<point x="536" y="768" type="line"/>
			<point x="472" y="768" type="line"/>
		</contour>
		<contour>
			<point x="472" y="720" type="line"/>
			<point x="616" y="720" type="line"/>
			<point x="616" y="768" type="line"/>
			<point x="472" y="768" type="line"/>
		</contour>
		<contour>
			<point x="472" y="416" type="line"/>
			<point x="584" y="416" type="line"/>
			<point x="584" y="464" type="line"/>
			<point x="472" y="464" type="line"/>
		</contour>
		<contour>
			<point x="472" y="72" type="line"/>
			<point x="616" y="72" type="line"/>
			<point x="616" y="120" type="line"/>
			<point x="472" y="120" type="line"/>
		</contour>
		<contour>
			<point x="128" y="16" type="line"/>
			<point x="136" y="16" type="line"/>
			<point x="136" y="56" type="line"/>
			<point x="128" y="56" type="line"/>
		</contour>
		<contour>
			<point x="152" y="16" type="line"/>
			<point x="168" y="16" type="line"/>
			<point x="168" y="56" type="line"/>
			<point x="152" y="56" type="line"/>
		</contour>
		<contour>
			<point x="176" y="16" type="line"/>
			<point x="200" y="16" type="line"/>
			<point x="200" y="56" type="line"/>
			<point x="176" y="56" type="line"/>
		</contour>
		<contour>
			<point x="568" y="16" type="line"/>
			<point x="584" y="16" type="line"/>
			<point x="584" y="56" type="line"/>
			<point x="568" y="56" type="line"/>
		</contour>
		<contour>
			<point x="592" y="16" type="line"/>
			<point x="616" y="16" type="line"/>
			<point x="616" y="56" type="line"/>
			<point x="592" y="56" type="line"/>
		</contour>
		<contour>
			<point x="624" y="16" type="line"/>
			<point x="656" y="16" type="line"/>
			<point x="656" y="56" type="line"/>
			<point x="624" y="56" type="line"/>
		</contour>
	</outline>
</glyph>
<glyph name="E027" format="2">
	<unicode hex="E027"/>
	<advance width="768"/>
	<outline>
		<contour>
			<point x="160" y="464" type="curve" smooth="yes"/>
			<point x="160" y="288"/>
			<point x="288" y="160"/>
			<point x="464" y="160" type="curve" smooth="yes"/>
			<point x="640" y="160"/>
			<point x="768" y="288"/>
			<point x="768" y="464" type="curve" smooth="yes"/>
			<point x="768" y="640"/>
			<point x="640" y="768"/>
			<point x="464" y="768" type="curve" smooth="yes"/>
			<point x="288" y="768"/>
			<point x="160" y="640"/>
		</contour>
		<contour>
			<point x="232" y="464" type="curve" smooth="yes"/>
			<point x="232" y="600"/>
			<point x="328" y="696"/>
			<point x="464" y="696" type="curve" smooth="yes"/>
			<point x="600" y="696"/>
			<point x="696" y="600"/>
			<point x="696" y="464" type="curve" smooth="yes"/>
			<point x="696" y="328"/>
			<point x="600" y="232"/>
			<point x="464" y="232" type="curve" smooth="yes"/>
			<point x="328" y="232"/>
			<point x="232" y="328"/>
		</contour>
		<contour>
			<point x="160" y="480" type="curve" smooth="yes"/>
			<point x="168" y="480"/>
			<point x="176" y="472"/>
			<point x="176" y="464" type="curve" smooth="yes"/>
			<point x="176" y="456"/>
			<point x="168" y="448"/>
			<point x="160" y="448" type="curve" smooth="yes"/>
			<point x="152" y="448"/>
			<point x="144" y="456"/>
			<point x="144" y="464" type="curve" smooth="yes"/>
			<point x="144" y="472"/>
			<point x="152" y="480"/>
		</contour>
		<contour>
			<point x="768" y="480" type="curve" smooth="yes"/>
			<point x="776" y="480"/>
			<point x="784" y="472"/>
			<point x="784" y="464" type="curve" smooth="yes"/>
			<point x="784" y="456"/>
			<point x="776" y="448"/>
			<point x="768" y="448" type="curve" smooth="yes"/>
			<point x="760" y="448"/>
			<point x="752" y="456"/>
			<point x="752" y="464" type="curve" smooth="yes"/>
			<point x="752" y="472"/>
			<point x="760" y="480"/>
		</contour>
		<contour>
			<point x="464" y="784" type="curve" smooth="yes"/>
			<point x="472" y="784"/>
			<point x="480" y="776"/>
			<point x="480" y="768" type="curve" smooth="yes"/>
			<point x="480" y="760"/>
			<point x="472" y="752"/>
			<point x="464" y="752" type="curve" smooth="yes"/>
			<point x="456" y="752"/>
			<point x="448" y="760"/>
			<point x="448" y="768" type="curve" smooth="yes"/>
			<point x="448" y="776"/>
			<point x="456" y="784"/>
		</contour>
		<contour>
			<point x="464" y="176" type="curve" smooth="yes"/>
			<point x="472" y="176"/>
			<point x="480" y="168"/>
			<point x="480" y="160" type="curve" smooth="yes"/>
			<point x="480" y="152"/>
			<point x="472" y="144"/>
			<point x="464" y="144" type="curve" smooth="yes"/>
			<point x="456" y="144"/>
			<point x="448" y="152"/>
			<point x="448" y="160" type="curve" smooth="yes"/>
			<point x="448" y="168"/>
			<point x="456" y="176"/>
		</contour>
		<contour>
			<point x="144" y="464" type="line"/>
			<point x="80" y="384" type="line"/>
			<point x="96" y="368" type="line"/>
			<point x="160" y="448" type="line"/>
		</contour>
		<contour>
			<point x="80" y="392" type="curve" smooth="yes"/>
			<point x="88" y="392"/>
			<point x="96" y="384"/>
			<point x="96" y="376" type="curve" smooth="yes"/>
			<point x="96" y="368"/>
			<point x="88" y="360"/>
			<point x="80" y="360" type="curve" smooth="yes"/>
			<point x="72" y="360"/>
			<point x="64" y="368"/>
			<point x="64" y="376" type="curve" smooth="yes"/>
			<point x="64" y="384"/>
			<point x="72" y="392"/>
		</contour>
		<contour>
			<point x="784" y="464" type="line"/>
			<point x="848" y="384" type="line"/>
			<point x="864" y="400" type="line"/>
			<point x="800" y="480" type="line"/>
		</contour>
		<contour>
			<point x="848" y="392" type="curve" smooth="yes"/>
			<point x="856" y="392"/>
			<point x="864" y="384"/>
			<point x="864" y="376" type="curve" smooth="yes"/>
			<point x="864" y="368"/>
			<point x="856" y="360"/>
			<point x="848" y="360" type="curve" smooth="yes"/>
			<point x="840" y="360"/>
			<point x="832" y="368"/>
			<point x="832" y="376" type="curve" smooth="yes"/>
			<point x="832" y="384"/>
			<point x="840" y="392"/>
		</contour>
	</outline>
</glyph>
<glyph name="F004" format="2">
	<unicode hex="F004"/>
	<advance width="544"/>
	<outline>
		<contour>
			<point x="284" y="8" type="line"/>
			<point x="292" y="0" type="line"/>
			<point x="300" y="0" type="line"/>
			<point x="512" y="286" type="line"/>
			<point x="512" y="294" type="line"/>
			<point x="504" y="302" type="line"/>
			<point x="496" y="302" type="line"/>
			<point x="284" y="180" type="line"/>
		</contour>
		<contour>
			<point x="292" y="236" type="line"/>
			<point x="300" y="236" type="line"/>
			<point x="512" y="354" type="line"/>
			<point x="512" y="370" type="line"/>
			<point x="300" y="464" type="line"/>
			<point x="292" y="464" type="line"/>
			<point x="284" y="456" type="line"/>
			<point x="284" y="244" type="line"/>
		</contour>
		<contour>
			<point x="504" y="414" type="line"/>
			<point x="504" y="422" type="line"/>
			<point x="300" y="768" type="line"/>
			<point x="292" y="768" type="line"/>
			<point x="284" y="760" type="line"/>
			<point x="284" y="504" type="line"/>
			<point x="292" y="496" type="line"/>
			<point x="496" y="406" type="line"/>
		</contour>
		<contour>
			<point x="260" y="8" type="line"/>
			<point x="260" y="180" type="line"/>
			<point x="48" y="302" type="line"/>
			<point x="40" y="302" type="line"/>
			<point x="32" y="294" type="line"/>
			<point x="32" y="286" type="line"/>
			<point x="244" y="0" type="line"/>
			<point x="252" y="0" type="line"/>
		</contour>
		<contour>
			<point x="252" y="236" type="line"/>
			<point x="260" y="244" type="line"/>
			<point x="260" y="456" type="line"/>
			<point x="252" y="464" type="line"/>
			<point x="244" y="464" type="line"/>
			<point x="32" y="370" type="line"/>
			<point x="32" y="354" type="line"/>
			<point x="244" y="236" type="line"/>
		</contour>
		<contour>
			<point x="40" y="414" type="line"/>
			<point x="48" y="406" type="line"/>
			<point x="252" y="496" type="line"/>
			<point x="260" y="504" type="line"/>
			<point x="260" y="760" type="line"/>
			<point x="252" y="768" type="line"/>
			<point x="244" y="768" type="line"/>
			<point x="40" y="422" type="line"/>
		</contour>
	</outline>
</glyph>
<glyph name="alef-ar.fina" format="2">
  <advance width="328"/>
  <outline>
    <contour>
      <point x="344" y="16" type="line"/>
      <point x="344" y="92" type="line"/>
      <point x="328" y="108" type="line"/>
      <point x="274" y="108" type="line" smooth="yes"/>
      <point x="178" y="108"/>
      <point x="160" y="164"/>
      <point x="160" y="241" type="curve" smooth="yes"/>
      <point x="160" y="752" type="line"/>
      <point x="144" y="768" type="line"/>
      <point x="80" y="768" type="line"/>
      <point x="64" y="752" type="line"/>
      <point x="64" y="251" type="line" smooth="yes"/>
      <point x="64" y="108"/>
      <point x="106" y="0"/>
      <point x="258" y="0" type="curve" smooth="yes"/>
      <point x="328" y="0" type="line"/>
    </contour>
  </outline>
</glyph>
<glyph name="beh-ar.init" format="2">
  <advance width="600"/>
  <outline>
    <contour>
      <point x="72" y="0" type="curve"/>
      <point x="0" y="0" type="line"/>
      <point x="0" y="108" type="line"/>
      <point x="72" y="108" type="line"/>
      <point x="136" y="108"/>
      <point x="168" y="144"/>
      <point x="168" y="208" type="curve" smooth="yes"/>
      <point x="168" y="416" type="line"/>
      <point x="184" y="432" type="line"/>
      <point x="256" y="432" type="line"/>
      <point x="272" y="416" type="line"/>
      <point x="272" y="192" type="line" smooth="yes"/>
      <point x="272" y="64"/>
      <point x="216" y="0"/>
    </contour>
    <contour>
      <point x="0" y="-256" type="curve" smooth="yes"/>
      <point x="48" y="-256"/>
      <point x="84" y="-216"/>
      <point x="84" y="-172" type="curve" smooth="yes"/>
      <point x="84" y="-124"/>
      <point x="48" y="-88"/>
      <point x="0" y="-88" type="curve" smooth="yes"/>
      <point x="-44" y="-88"/>
      <point x="-84" y="-124"/>
      <point x="-84" y="-172" type="curve" smooth="yes"/>
      <point x="-84" y="-216"/>
      <point x="-44" y="-256"/>
    </contour>
  </outline>
</glyph>
<glyph name="behDotless-ar.medi" format="2">
  <advance width="416"/>
  <anchor x="208" y="24" name="bottomDots"/>
  <anchor x="208" y="520" name="top"/>
  <anchor x="208" y="384" name="topDots"/>
  <anchor x="208" y="0" name="bottom"/>
  <outline>
    <contour>
      <point x="0" y="0" type="line"/>
      <point x="-16" y="16" type="line"/>
      <point x="-16" y="96" type="line"/>
      <point x="0" y="112" type="line"/>
      <point x="32" y="112" type="line" smooth="yes"/>
      <point x="128" y="112"/>
      <point x="156" y="144"/>
      <point x="156" y="236" type="curve" smooth="yes"/>
      <point x="156" y="368" type="line"/>
      <point x="172" y="384" type="line"/>
      <point x="244" y="384" type="line"/>
      <point x="260" y="368" type="line"/>
      <point x="260" y="236" type="line" smooth="yes"/>
      <point x="260" y="144"/>
      <point x="288" y="112"/>
      <point x="384" y="112" type="curve" smooth="yes"/>
      <point x="416" y="112" type="line"/>
      <point x="416" y="0" type="line"/>
      <point x="384" y="0" type="line"/>
      <point x="328" y="0"/>
      <point x="240" y="20"/>
      <point x="216" y="92" type="curve"/>
      <point x="200" y="92" type="line"/>
      <point x="176" y="20"/>
      <point x="128" y="0"/>
      <point x="32" y="0" type="curve" smooth="yes"/>
    </contour>
  </outline>
</glyph>
<glyph name="dotabove-ar" format="2">
  <advance width="300"/>
  <anchor x="152" y="832" name="top"/>
  <anchor x="152" y="576" name="_topDots"/>
  <outline>
    <contour>
      <point x="152" y="620" type="curve" smooth="yes"/>
      <point x="200" y="620"/>
      <point x="240" y="660"/>
      <point x="240" y="712" type="curve" smooth="yes"/>
      <point x="240" y="760"/>
      <point x="200" y="800"/>
      <point x="152" y="800" type="curve" smooth="yes"/>
      <point x="100" y="800"/>
      <point x="60" y="760"/>
      <point x="60" y="712" type="curve" smooth="yes"/>
      <point x="60" y="660"/>
      <point x="100" y="620"/>
    </contour>
  </outline>
</glyph>
<glyph name="dotbelow-ar" format="2">
	<advance width="244"/>
	<outline>
		<contour>
			<point x="124" y="-256" type="curve" smooth="yes"/>
			<point x="172" y="-256"/>
			<point x="208" y="-216"/>
			<point x="208" y="-172" type="curve" smooth="yes"/>
			<point x="208" y="-124"/>
			<point x="172" y="-88"/>
			<point x="124" y="-88" type="curve" smooth="yes"/>
			<point x="80" y="-88"/>
			<point x="40" y="-124"/>
			<point x="40" y="-172" type="curve" smooth="yes"/>
			<point x="40" y="-216"/>
			<point x="80" y="-256"/>
		</contour>
	</outline>
	<anchor name="_bottomDots" x="124" y="0"/>
	<anchor name="bottom" x="124" y="-306"/>
</glyph>
<glyph name="heh-ar.medi" format="2">
  <advance width="440"/>
  <outline>
    <contour>
      <point x="372" y="-112" type="curve" smooth="yes"/>
      <point x="372" y="-50"/>
      <point x="332" y="0"/>
      <point x="220" y="0" type="curve" smooth="yes"/>
      <point x="136" y="0" type="line"/>
      <point x="128" y="-8" type="line"/>
      <point x="128" y="-72" type="line" smooth="yes"/>
      <point x="128" y="-132"/>
      <point x="172" y="-212"/>
      <point x="260" y="-212" type="curve" smooth="yes"/>
      <point x="340" y="-212"/>
      <point x="372" y="-172"/>
    </contour>
    <contour>
      <point x="136" y="108" type="line"/>
      <point x="176" y="108" type="line" smooth="yes"/>
      <point x="272" y="108"/>
      <point x="328" y="172"/>
      <point x="328" y="272" type="curve" smooth="yes"/>
      <point x="328" y="336"/>
      <point x="290" y="388"/>
      <point x="228" y="388" type="curve" smooth="yes"/>
      <point x="164" y="388"/>
      <point x="128" y="336"/>
      <point x="128" y="272" type="curve" smooth="yes"/>
      <point x="128" y="116" type="line"/>
    </contour>
    <contour>
      <point x="0" y="0" type="line"/>
      <point x="-16" y="14" type="line"/>
      <point x="-16" y="92" type="line"/>
      <point x="0" y="108" type="line"/>
      <point x="24" y="108" type="line"/>
      <point x="32" y="116" type="line"/>
      <point x="32" y="272" type="line" smooth="yes"/>
      <point x="32" y="400"/>
      <point x="100" y="496"/>
      <point x="228" y="496" type="curve" smooth="yes"/>
      <point x="354" y="496"/>
      <point x="428" y="416"/>
      <point x="428" y="288" type="curve" smooth="yes"/>
      <point x="428" y="224"/>
      <point x="386" y="140"/>
      <point x="354" y="124" type="curve"/>
      <point x="354" y="108" type="line"/>
      <point x="440" y="108" type="line"/>
      <point x="440" y="0" type="line"/>
      <point x="406" y="0" type="line"/>
      <point x="406" y="-16" type="line"/>
      <point x="450" y="-32"/>
      <point x="472" y="-80"/>
      <point x="472" y="-144" type="curve" smooth="yes"/>
      <point x="472" y="-256"/>
      <point x="408" y="-320"/>
      <point x="260" y="-320" type="curve" smooth="yes"/>
      <point x="104" y="-320"/>
      <point x="32" y="-200"/>
      <point x="32" y="-72" type="curve" smooth="yes"/>
      <point x="32" y="-8" type="line"/>
      <point x="24" y="0" type="line"/>
    </contour>
  </outline>
</glyph>
<glyph name="kaf-ar.fina" format="2">
  <advance width="760"/>
  <outline>
    <contour>
      <point x="776" y="16" type="line"/>
      <point x="776" y="92" type="line"/>
      <point x="760" y="108" type="line"/>
      <point x="706" y="108" type="line" smooth="yes"/>
      <point x="610" y="108"/>
      <point x="592" y="164"/>
      <point x="592" y="241" type="curve" smooth="yes"/>
      <point x="592" y="752" type="line"/>
      <point x="576" y="768" type="line"/>
      <point x="512" y="768" type="line"/>
      <point x="496" y="752" type="line"/>
      <point x="496" y="241" type="line" smooth="yes"/>
      <point x="496" y="164"/>
      <point x="478" y="108"/>
      <point x="382" y="108" type="curve" smooth="yes"/>
      <point x="274" y="108" type="line" smooth="yes"/>
      <point x="178" y="108"/>
      <point x="160" y="164"/>
      <point x="160" y="241" type="curve" smooth="yes"/>
      <point x="160" y="386" type="line"/>
      <point x="144" y="402" type="line"/>
      <point x="80" y="402" type="line"/>
      <point x="64" y="386" type="line"/>
      <point x="64" y="251" type="line" smooth="yes"/>
      <point x="64" y="108"/>
      <point x="106" y="0"/>
      <point x="258" y="0" type="curve" smooth="yes"/>
      <point x="398" y="0" type="line" smooth="yes"/>
      <point x="467" y="0"/>
      <point x="514" y="23"/>
      <point x="544" y="61" type="curve"/>
      <point x="574" y="23"/>
      <point x="621" y="0"/>
      <point x="690" y="0" type="curve" smooth="yes"/>
      <point x="760" y="0" type="line"/>
    </contour>
    <contour>
      <point x="318" y="226" type="curve" smooth="yes"/>
      <point x="366" y="226"/>
      <point x="402" y="266"/>
      <point x="402" y="310" type="curve" smooth="yes"/>
      <point x="402" y="358"/>
      <point x="366" y="394"/>
      <point x="318" y="394" type="curve" smooth="yes"/>
      <point x="274" y="394"/>
      <point x="234" y="358"/>
      <point x="234" y="310" type="curve" smooth="yes"/>
      <point x="234" y="266"/>
      <point x="274" y="226"/>
    </contour>
  </outline>
</glyph>
<glyph name="lam-ar.init" format="2">
  <advance width="336"/>
  <outline>
    <contour>
      <point x="72" y="0" type="curve"/>
      <point x="0" y="0" type="line"/>
      <point x="0" y="108" type="line"/>
      <point x="72" y="108" type="line"/>
      <point x="136" y="108"/>
      <point x="168" y="144"/>
      <point x="168" y="208" type="curve" smooth="yes"/>
      <point x="168" y="752" type="line"/>
      <point x="184" y="768" type="line"/>
      <point x="256" y="768" type="line"/>
      <point x="272" y="752" type="line"/>
      <point x="272" y="192" type="line" smooth="yes"/>
      <point x="272" y="64"/>
      <point x="216" y="0"/>
    </contour>
  </outline>
</glyph>
<glyph name="lam-ar.medi" format="2">
  <advance width="416"/>
  <outline>
    <contour>
      <point x="0" y="0" type="line"/>
      <point x="-16" y="16" type="line"/>
      <point x="-16" y="96" type="line"/>
      <point x="0" y="112" type="line"/>
      <point x="32" y="112" type="line" smooth="yes"/>
      <point x="128" y="112"/>
      <point x="156" y="144"/>
      <point x="156" y="240" type="curve" smooth="yes"/>
      <point x="156" y="784" type="line"/>
      <point x="172" y="800" type="line"/>
      <point x="244" y="800" type="line"/>
      <point x="260" y="784" type="line"/>
      <point x="260" y="240" type="line" smooth="yes"/>
      <point x="260" y="144"/>
      <point x="288" y="112"/>
      <point x="384" y="112" type="curve" smooth="yes"/>
      <point x="416" y="112" type="line"/>
      <point x="432" y="96" type="line"/>
      <point x="432" y="16" type="line"/>
      <point x="416" y="0" type="line"/>
      <point x="368" y="0" type="line" smooth="yes"/>
      <point x="288" y="0"/>
      <point x="244" y="8"/>
      <point x="216" y="84" type="curve"/>
      <point x="200" y="84" type="line"/>
      <point x="172" y="8"/>
      <point x="128" y="0"/>
      <point x="48" y="0" type="curve" smooth="yes"/>
    </contour>
  </outline>
</glyph>
<glyph name="seen-ar.init" format="2">
  <advance width="840"/>
  <anchor x="448" y="0" name="bottom"/>
  <anchor x="440" y="432" name="top"/>
  <anchor x="440" y="464" name="topDots"/>
  <outline>
    <contour>
      <point x="0" y="0" type="line"/>
      <point x="-16" y="16" type="line"/>
      <point x="-16" y="92" type="line"/>
      <point x="0" y="108" type="line"/>
      <point x="16" y="108" type="line" smooth="yes"/>
      <point x="80" y="108"/>
      <point x="104" y="146"/>
      <point x="104" y="210" type="curve" smooth="yes"/>
      <point x="104" y="416" type="line"/>
      <point x="120" y="432" type="line"/>
      <point x="184" y="432" type="line"/>
      <point x="200" y="416" type="line"/>
      <point x="200" y="188" type="line" smooth="yes"/>
      <point x="200" y="132"/>
      <point x="240" y="92"/>
      <point x="296" y="92" type="curve" smooth="yes"/>
      <point x="352" y="92"/>
      <point x="392" y="132"/>
      <point x="392" y="188" type="curve" smooth="yes"/>
      <point x="392" y="416" type="line"/>
      <point x="408" y="432" type="line"/>
      <point x="472" y="432" type="line"/>
      <point x="488" y="416" type="line"/>
      <point x="488" y="188" type="line" smooth="yes"/>
      <point x="488" y="132"/>
      <point x="528" y="92"/>
      <point x="584" y="92" type="curve" smooth="yes"/>
      <point x="640" y="92"/>
      <point x="680" y="132"/>
      <point x="680" y="188" type="curve" smooth="yes"/>
      <point x="680" y="416" type="line"/>
      <point x="696" y="432" type="line"/>
      <point x="760" y="432" type="line"/>
      <point x="776" y="416" type="line"/>
      <point x="776" y="188" type="line" smooth="yes"/>
      <point x="776" y="60"/>
      <point x="712" y="-16"/>
      <point x="584" y="-16" type="curve" smooth="yes"/>
      <point x="528" y="-16"/>
      <point x="480" y="0"/>
      <point x="456" y="72" type="curve"/>
      <point x="440" y="72" type="line"/>
      <point x="416" y="0"/>
      <point x="360" y="-16"/>
      <point x="296" y="-16" type="curve" smooth="yes"/>
      <point x="232" y="-16"/>
      <point x="160" y="16"/>
      <point x="144" y="88" type="curve"/>
      <point x="128" y="88" type="line"/>
      <point x="116" y="32"/>
      <point x="72" y="0"/>
      <point x="16" y="0" type="curve" smooth="yes"/>
    </contour>
  </outline>
</glyph>
<glyph name="threedotsupabove-ar" format="2">
  <advance width="300"/>
  <anchor x="144" y="576" name="_topDots"/>
  <anchor x="204" y="924" name="top"/>
  <outline>
    <contour>
      <point x="288" y="600" type="curve" smooth="yes"/>
      <point x="336" y="600"/>
      <point x="372" y="640"/>
      <point x="372" y="684" type="curve" smooth="yes"/>
      <point x="372" y="732"/>
      <point x="336" y="768"/>
      <point x="288" y="768" type="curve" smooth="yes"/>
      <point x="244" y="768"/>
      <point x="204" y="732"/>
      <point x="204" y="684" type="curve" smooth="yes"/>
      <point x="204" y="640"/>
      <point x="244" y="600"/>
    </contour>
    <contour>
      <point x="0" y="600" type="curve" smooth="yes"/>
      <point x="48" y="600"/>
      <point x="84" y="640"/>
      <point x="84" y="684" type="curve" smooth="yes"/>
      <point x="84" y="732"/>
      <point x="48" y="768"/>
      <point x="0" y="768" type="curve" smooth="yes"/>
      <point x="-44" y="768"/>
      <point x="-84" y="732"/>
      <point x="-84" y="684" type="curve" smooth="yes"/>
      <point x="-84" y="640"/>
      <point x="-44" y="600"/>
    </contour>
    <contour>
      <point x="144" y="832" type="curve" smooth="yes"/>
      <point x="192" y="832"/>
      <point x="228" y="872"/>
      <point x="228" y="916" type="curve" smooth="yes"/>
      <point x="228" y="964"/>
      <point x="192" y="1000"/>
      <point x="144" y="1000" type="curve" smooth="yes"/>
      <point x="100" y="1000"/>
      <point x="60" y="964"/>
      <point x="60" y="916" type="curve" smooth="yes"/>
      <point x="60" y="872"/>
      <point x="100" y="832"/>
    </contour>
  </outline>
</glyph>
<glyph name="twodotshorizontalabove-ar" format="2">
  <advance width="300"/>
  <anchor x="152" y="800" name="top"/>
  <anchor x="152" y="576" name="_topDots"/>
  <outline>
    <contour>
      <point x="264" y="632" type="curve" smooth="yes"/>
      <point x="312" y="632"/>
      <point x="348" y="672"/>
      <point x="348" y="716" type="curve" smooth="yes"/>
      <point x="348" y="764"/>
      <point x="312" y="800"/>
      <point x="264" y="800" type="curve" smooth="yes"/>
      <point x="220" y="800"/>
      <point x="180" y="764"/>
      <point x="180" y="716" type="curve" smooth="yes"/>
      <point x="180" y="672"/>
      <point x="220" y="632"/>
    </contour>
    <contour>
      <point x="40" y="632" type="curve" smooth="yes"/>
      <point x="88" y="632"/>
      <point x="124" y="672"/>
      <point x="124" y="716" type="curve" smooth="yes"/>
      <point x="124" y="764"/>
      <point x="88" y="800"/>
      <point x="40" y="800" type="curve" smooth="yes"/>
      <point x="-4" y="800"/>
      <point x="-44" y="764"/>
      <point x="-44" y="716" type="curve" smooth="yes"/>
      <point x="-44" y="672"/>
      <point x="-4" y="632"/>
    </contour>
  </outline>
</glyph>
<glyph name="yeh-ar.fina" format="2">
  <advance width="856"/>
  <outline>
    <contour>
      <point x="550" y="108" type="curve" smooth="yes"/>
      <point x="550" y="76" type="line" smooth="yes"/>
      <point x="550" y="-52"/>
      <point x="494" y="-108"/>
      <point x="350" y="-108" type="curve" smooth="yes"/>
      <point x="232" y="-108" type="line" smooth="yes"/>
      <point x="88" y="-108"/>
      <point x="32" y="-44"/>
      <point x="32" y="84" type="curve" smooth="yes"/>
      <point x="32" y="148" type="line"/>
      <point x="48" y="164" type="line"/>
      <point x="124" y="164" type="line"/>
      <point x="140" y="148" type="line"/>
      <point x="140" y="100" type="line" smooth="yes"/>
      <point x="140" y="36"/>
      <point x="168" y="0"/>
      <point x="232" y="0" type="curve" smooth="yes"/>
      <point x="350" y="0" type="line" smooth="yes"/>
      <point x="414" y="0"/>
      <point x="454" y="12"/>
      <point x="454" y="76" type="curve" smooth="yes"/>
      <point x="454" y="132" type="line" smooth="yes"/>
      <point x="454" y="212"/>
      <point x="510" y="308"/>
      <point x="626" y="308" type="curve" smooth="yes"/>
      <point x="726" y="308"/>
      <point x="798" y="244"/>
      <point x="798" y="160" type="curve" smooth="yes"/>
      <point x="798" y="124"/>
      <point x="816" y="108"/>
      <point x="838" y="108" type="curve" smooth="yes"/>
      <point x="856" y="108" type="line"/>
      <point x="856" y="0" type="line"/>
      <point x="826" y="0" type="line" smooth="yes"/>
      <point x="754" y="0"/>
      <point x="702" y="56"/>
      <point x="702" y="120" type="curve" smooth="yes"/>
      <point x="702" y="172"/>
      <point x="680" y="200"/>
      <point x="626" y="200" type="curve" smooth="yes"/>
      <point x="570" y="200"/>
      <point x="550" y="160"/>
    </contour>
    <contour>
      <point x="438" y="-356" type="curve" smooth="yes"/>
      <point x="486" y="-356"/>
      <point x="522" y="-316"/>
      <point x="522" y="-272" type="curve" smooth="yes"/>
      <point x="522" y="-224"/>
      <point x="486" y="-188"/>
      <point x="438" y="-188" type="curve" smooth="yes"/>
      <point x="394" y="-188"/>
      <point x="354" y="-224"/>
      <point x="354" y="-272" type="curve" smooth="yes"/>
      <point x="354" y="-316"/>
      <point x="394" y="-356"/>
    </contour>
    <contour>
      <point x="150" y="-356" type="curve" smooth="yes"/>
      <point x="198" y="-356"/>
      <point x="234" y="-316"/>
      <point x="234" y="-272" type="curve" smooth="yes"/>
      <point x="234" y="-224"/>
      <point x="198" y="-188"/>
      <point x="150" y="-188" type="curve" smooth="yes"/>
      <point x="106" y="-188"/>
      <point x="66" y="-224"/>
      <point x="66" y="-272" type="curve" smooth="yes"/>
      <point x="66" y="-316"/>
      <point x="106" y="-356"/>
    </contour>
  </outline>
</glyph>
<glyph name="yeh-ar.init" format="2">
  <advance width="336"/>
  <outline>
    <contour>
      <point x="72" y="0" type="curve"/>
      <point x="0" y="0" type="line"/>
      <point x="0" y="108" type="line"/>
      <point x="72" y="108" type="line"/>
      <point x="136" y="108"/>
      <point x="168" y="144"/>
      <point x="168" y="208" type="curve" smooth="yes"/>
      <point x="168" y="416" type="line"/>
      <point x="184" y="432" type="line"/>
      <point x="256" y="432" type="line"/>
      <point x="272" y="416" type="line"/>
      <point x="272" y="192" type="line" smooth="yes"/>
      <point x="272" y="64"/>
      <point x="216" y="0"/>
    </contour>
    <contour>
      <point x="135" y="-256" type="curve" smooth="yes"/>
      <point x="183" y="-256"/>
      <point x="219" y="-216"/>
      <point x="219" y="-172" type="curve" smooth="yes"/>
      <point x="219" y="-124"/>
      <point x="183" y="-88"/>
      <point x="135" y="-88" type="curve" smooth="yes"/>
      <point x="91" y="-88"/>
      <point x="51" y="-124"/>
      <point x="51" y="-172" type="curve" smooth="yes"/>
      <point x="51" y="-216"/>
      <point x="91" y="-256"/>
    </contour>
    <contour>
      <point x="-115" y="-256" type="curve" smooth="yes"/>
      <point x="-67" y="-256"/>
      <point x="-31" y="-216"/>
      <point x="-31" y="-172" type="curve" smooth="yes"/>
      <point x="-31" y="-124"/>
      <point x="-67" y="-88"/>
      <point x="-115" y="-88" type="curve" smooth="yes"/>
      <point x="-159" y="-88"/>
      <point x="-199" y="-124"/>
      <point x="-199" y="-172" type="curve" smooth="yes"/>
      <point x="-199" y="-216"/>
      <point x="-159" y="-256"/>
    </contour>
  </outline>
</glyph>
